<?xml version="1.0" standalone="no"?>
<!DOCTYPE svg PUBLIC "-//W3C//DTD SVG 20010904//EN"
 "http://www.w3.org/TR/2001/REC-SVG-20010904/DTD/svg10.dtd">
<svg version="1.0" xmlns="http://www.w3.org/2000/svg"
 width="225.000000pt" height="225.000000pt" viewBox="0 0 225.000000 225.000000"
 preserveAspectRatio="xMidYMid meet">
<metadata>
Created by potrace 1.11, written by Peter Selinger 2001-2013
</metadata>
<g transform="translate(0.000000,225.000000) scale(0.100000,-0.100000)"
fill="#000000" stroke="none">
<path d="M722 1878 l-402 -233 2 -473 3 -474 395 -229 c217 -125 402 -228 410
-228 8 0 193 102 410 228 l395 229 3 474 2 474 -63 37 c-35 20 -67 37 -70 37
-4 0 -7 -133 -7 -295 0 -277 -1 -298 -20 -335 -60 -117 -226 -130 -306 -24
l-29 37 -3 417 -3 416 -152 87 c-84 48 -155 87 -158 87 -2 0 -185 -105 -407
-232z m598 -455 c0 -149 -5 -274 -11 -296 -13 -47 -63 -106 -106 -123 -41 -18
-105 -18 -146 0 -43 17 -93 76 -106 123 -6 22 -11 147 -11 296 l0 257 190 0
190 0 0 -257z m-490 -105 c0 -161 -2 -177 -24 -224 -50 -108 -194 -139 -282
-62 -61 54 -64 67 -64 273 l0 185 185 0 185 0 0 -172z"/>
</g>
</svg>
