<svg width="48" height="96" viewBox="0 0 48 96" fill="none" xmlns="http://www.w3.org/2000/svg">
<mask id="mask0" mask-type="alpha" maskUnits="userSpaceOnUse" x="0" y="0" width="48" height="96">
<path d="M0 8C0 3.58172 3.58172 0 8 0H40C44.4183 0 48 3.58172 48 8V96H0V8Z" fill="white"/>
</mask>
<g mask="url(#mask0)">
<line x1="330.726" y1="-363.454" x2="-154.158" y2="121.43" stroke="#FDC096" stroke-width="1.65236"/>
<line x1="335.4" y1="-358.781" x2="-149.484" y2="126.103" stroke="#FDC096" stroke-width="1.65236"/>
<line x1="340.072" y1="-354.106" x2="-144.811" y2="130.777" stroke="#FDC096" stroke-width="1.65236"/>
<line x1="344.747" y1="-349.433" x2="-140.136" y2="135.45" stroke="#FDC096" stroke-width="1.65236"/>
<line x1="349.42" y1="-344.761" x2="-135.463" y2="140.123" stroke="#FDC096" stroke-width="1.65236"/>
<line x1="354.093" y1="-340.086" x2="-130.791" y2="144.798" stroke="#FDC096" stroke-width="1.65236"/>
<line x1="361.105" y1="-337.749" x2="-126.116" y2="149.472" stroke="#FDC096" stroke-width="1.65236"/>
<line x1="363.441" y1="-330.739" x2="-121.443" y2="154.145" stroke="#FDC096" stroke-width="1.65236"/>
<line x1="369.282" y1="-327.233" x2="-116.77" y2="158.819" stroke="#FDC096" stroke-width="1.65236"/>
<line x1="372.788" y1="-321.391" x2="-112.095" y2="163.492" stroke="#FDC096" stroke-width="1.65236"/>
<line x1="379.798" y1="-319.055" x2="-107.422" y2="168.165" stroke="#FDC096" stroke-width="1.65236"/>
<line x1="384.472" y1="-314.382" x2="-102.748" y2="172.839" stroke="#FDC096" stroke-width="1.65236"/>
<line x1="386.81" y1="-307.371" x2="-98.0738" y2="177.513" stroke="#FDC096" stroke-width="1.65236"/>
<line x1="392.651" y1="-303.866" x2="-93.4014" y2="182.186" stroke="#FDC096" stroke-width="1.65236"/>
<line x1="396.155" y1="-298.025" x2="-88.7281" y2="186.858" stroke="#FDC096" stroke-width="1.65236"/>
<line x1="403.167" y1="-295.686" x2="-84.0532" y2="191.534" stroke="#FDC096" stroke-width="1.65236"/>
<line x1="407.84" y1="-291.013" x2="-79.3803" y2="196.207" stroke="#FDC096" stroke-width="1.65236"/>
<line x1="410.177" y1="-284.004" x2="-74.7066" y2="200.88" stroke="#FDC096" stroke-width="1.65236"/>
<line x1="416.018" y1="-280.498" x2="-70.0342" y2="205.554" stroke="#FDC096" stroke-width="1.65236"/>
<line x1="419.525" y1="-274.656" x2="-65.359" y2="210.228" stroke="#FDC096" stroke-width="1.65236"/>
<line x1="426.534" y1="-272.319" x2="-60.686" y2="214.901" stroke="#FDC096" stroke-width="1.65236"/>
<line x1="431.207" y1="-267.646" x2="-56.0131" y2="219.574" stroke="#FDC096" stroke-width="1.65236"/>
<line x1="435.882" y1="-262.971" x2="-51.3383" y2="224.249" stroke="#FDC096" stroke-width="1.65236"/>
<line x1="439.387" y1="-257.131" x2="-46.6651" y2="228.921" stroke="#FDC096" stroke-width="1.65236"/>
<line x1="442.892" y1="-251.288" x2="-41.9918" y2="233.596" stroke="#FDC096" stroke-width="1.65236"/>
<line x1="449.903" y1="-248.951" x2="-37.3178" y2="238.269" stroke="#FDC096" stroke-width="1.65236"/>
<line x1="454.575" y1="-244.278" x2="-32.645" y2="242.942" stroke="#FDC096" stroke-width="1.65236"/>
<line x1="459.248" y1="-239.605" x2="-27.9721" y2="247.615" stroke="#FDC096" stroke-width="1.65236"/>
<line x1="462.755" y1="-233.762" x2="-23.2969" y2="252.29" stroke="#FDC096" stroke-width="1.65236"/>
<line x1="466.26" y1="-227.921" x2="-18.6236" y2="256.963" stroke="#FDC096" stroke-width="1.65236"/>
<line x1="473.27" y1="-225.584" x2="-13.9506" y2="261.637" stroke="#FDC096" stroke-width="1.65236"/>
<line x1="475.606" y1="-218.573" x2="-9.27794" y2="266.311" stroke="#FDC096" stroke-width="1.65236"/>
<line x1="482.617" y1="-216.236" x2="-4.60299" y2="270.984" stroke="#FDC096" stroke-width="1.65236"/>
<line x1="486.122" y1="-210.395" x2="0.0702788" y2="275.657" stroke="#FDC096" stroke-width="1.65236"/>
<line x1="489.627" y1="-204.552" x2="4.74355" y2="280.332" stroke="#FDC096" stroke-width="1.65236"/>
<line x1="496.638" y1="-202.216" x2="9.41752" y2="285.005" stroke="#FDC096" stroke-width="1.65236"/>
<line x1="498.975" y1="-195.206" x2="14.0912" y2="289.678" stroke="#FDC096" stroke-width="1.65236"/>
<line x1="505.985" y1="-192.869" x2="18.7642" y2="294.351" stroke="#FDC096" stroke-width="1.65236"/>
<line x1="509.49" y1="-187.026" x2="23.4384" y2="299.026" stroke="#FDC096" stroke-width="1.65236"/>
<line x1="512.995" y1="-181.185" x2="28.1117" y2="303.698" stroke="#FDC096" stroke-width="1.65236"/>
<line x1="520.005" y1="-178.848" x2="32.7847" y2="308.372" stroke="#FDC096" stroke-width="1.65236"/>
<line x1="522.343" y1="-171.837" x2="37.4594" y2="313.047" stroke="#FDC096" stroke-width="1.65236"/>
<line x1="529.353" y1="-169.501" x2="42.1324" y2="317.72" stroke="#FDC096" stroke-width="1.65236"/>
<line x1="532.858" y1="-163.659" x2="46.8056" y2="322.393" stroke="#FDC096" stroke-width="1.65236"/>
</g>
</svg>
