<svg width="1216" height="492" viewBox="0 0 1216 492" fill="none" xmlns="http://www.w3.org/2000/svg">
<rect x="865" y="10" width="82" height="408" fill="#D4D2EB"/>
<rect x="361" y="10" width="125" height="408" fill="#D4D2EB"/>
<line x1="56.8027" y1="213.5" x2="1216" y2="213.5" stroke="#8B8687"/>
<path d="M8.85607 208.848V220H6.93607V212.192H4.32807V210.592H5.81607C6.20007 210.592 6.48274 210.507 6.66407 210.336C6.8454 210.165 6.93607 209.893 6.93607 209.52V208.848H8.85607ZM17.2391 212.336C17.9644 212.336 18.6151 212.507 19.1911 212.848C19.7671 213.189 20.2151 213.653 20.5351 214.24C20.8657 214.816 21.0311 215.44 21.0311 216.112C21.0311 216.816 20.8551 217.483 20.5031 218.112C20.1511 218.731 19.6604 219.227 19.0311 219.6C18.4124 219.973 17.7191 220.16 16.9511 220.16C16.2577 220.16 15.6177 220.011 15.0311 219.712C14.4551 219.413 13.9804 219.008 13.6071 218.496C13.2337 217.973 13.0044 217.403 12.9191 216.784L14.8071 216.464C14.8711 216.965 15.0844 217.403 15.4471 217.776C15.8204 218.139 16.3164 218.32 16.9351 218.32C17.5964 218.32 18.1031 218.101 18.4551 217.664C18.8177 217.227 18.9991 216.709 18.9991 216.112C18.9991 215.547 18.8284 215.077 18.4871 214.704C18.1457 214.32 17.6444 214.128 16.9831 214.128C16.1511 214.128 15.5111 214.475 15.0631 215.168L13.2551 214.72L14.3271 208.848H20.5351V210.688H15.9111L15.5111 212.816C16.0231 212.496 16.5991 212.336 17.2391 212.336ZM26.9501 220.16C25.4141 220.16 24.3847 219.605 23.8621 218.496C23.3394 217.376 23.0781 216.021 23.0781 214.432C23.0781 212.821 23.3287 211.461 23.8301 210.352C24.3421 209.232 25.3447 208.672 26.8381 208.672C28.2461 208.672 29.2381 209.227 29.8141 210.336C30.4007 211.435 30.6941 212.805 30.6941 214.448C30.6941 216.08 30.4114 217.44 29.8461 218.528C29.2807 219.616 28.3154 220.16 26.9501 220.16ZM26.9021 218.32C27.4247 218.32 27.8087 218.133 28.0541 217.76C28.3101 217.387 28.4701 216.939 28.5341 216.416C28.5981 215.883 28.6301 215.216 28.6301 214.416C28.6301 213.595 28.5981 212.923 28.5341 212.4C28.4701 211.867 28.3047 211.419 28.0381 211.056C27.7821 210.693 27.3821 210.512 26.8381 210.512C26.2941 210.512 25.8887 210.693 25.6221 211.056C25.3661 211.419 25.2061 211.867 25.1421 212.4C25.0781 212.933 25.0461 213.611 25.0461 214.432C25.0461 215.232 25.0781 215.899 25.1421 216.432C25.2167 216.955 25.3874 217.403 25.6541 217.776C25.9207 218.139 26.3367 218.32 26.9021 218.32Z" fill="#8B8687"/>
<line x1="56.8027" y1="145.5" x2="1216" y2="145.5" stroke="#8B8687"/>
<path d="M11.0801 150.192V152H3.27207V150.416C4.7334 149.52 6.00274 148.565 7.08007 147.552C8.1574 146.528 8.69607 145.445 8.69607 144.304C8.69607 143.781 8.5574 143.36 8.28007 143.04C8.0134 142.72 7.6134 142.56 7.08007 142.56C6.4294 142.56 5.95474 142.784 5.65607 143.232C5.36807 143.68 5.20807 144.24 5.17607 144.912L3.28807 144.768C3.28807 144.064 3.4374 143.403 3.73607 142.784C4.03474 142.165 4.47207 141.664 5.04807 141.28C5.63474 140.896 6.32274 140.704 7.11207 140.704C7.79474 140.704 8.3974 140.848 8.92007 141.136C9.4534 141.424 9.8694 141.829 10.1681 142.352C10.4667 142.875 10.6161 143.477 10.6161 144.16C10.6161 144.949 10.4187 145.733 10.0241 146.512C9.6294 147.28 9.12274 147.979 8.50407 148.608C7.8854 149.237 7.23474 149.765 6.55207 150.192H11.0801ZM17.0951 152.16C15.5591 152.16 14.5297 151.605 14.0071 150.496C13.4844 149.376 13.2231 148.021 13.2231 146.432C13.2231 144.821 13.4737 143.461 13.9751 142.352C14.4871 141.232 15.4897 140.672 16.9831 140.672C18.3911 140.672 19.3831 141.227 19.9591 142.336C20.5457 143.435 20.8391 144.805 20.8391 146.448C20.8391 148.08 20.5564 149.44 19.9911 150.528C19.4257 151.616 18.4604 152.16 17.0951 152.16ZM17.0471 150.32C17.5697 150.32 17.9537 150.133 18.1991 149.76C18.4551 149.387 18.6151 148.939 18.6791 148.416C18.7431 147.883 18.7751 147.216 18.7751 146.416C18.7751 145.595 18.7431 144.923 18.6791 144.4C18.6151 143.867 18.4497 143.419 18.1831 143.056C17.9271 142.693 17.5271 142.512 16.9831 142.512C16.4391 142.512 16.0337 142.693 15.7671 143.056C15.5111 143.419 15.3511 143.867 15.2871 144.4C15.2231 144.933 15.1911 145.611 15.1911 146.432C15.1911 147.232 15.2231 147.899 15.2871 148.432C15.3617 148.955 15.5324 149.403 15.7991 149.776C16.0657 150.139 16.4817 150.32 17.0471 150.32ZM26.9501 152.16C25.4141 152.16 24.3847 151.605 23.8621 150.496C23.3394 149.376 23.0781 148.021 23.0781 146.432C23.0781 144.821 23.3287 143.461 23.8301 142.352C24.3421 141.232 25.3447 140.672 26.8381 140.672C28.2461 140.672 29.2381 141.227 29.8141 142.336C30.4007 143.435 30.6941 144.805 30.6941 146.448C30.6941 148.08 30.4114 149.44 29.8461 150.528C29.2807 151.616 28.3154 152.16 26.9501 152.16ZM26.9021 150.32C27.4247 150.32 27.8087 150.133 28.0541 149.76C28.3101 149.387 28.4701 148.939 28.5341 148.416C28.5981 147.883 28.6301 147.216 28.6301 146.416C28.6301 145.595 28.5981 144.923 28.5341 144.4C28.4701 143.867 28.3047 143.419 28.0381 143.056C27.7821 142.693 27.3821 142.512 26.8381 142.512C26.2941 142.512 25.8887 142.693 25.6221 143.056C25.3661 143.419 25.2061 143.867 25.1421 144.4C25.0781 144.933 25.0461 145.611 25.0461 146.432C25.0461 147.232 25.0781 147.899 25.1421 148.432C25.2167 148.955 25.3874 149.403 25.6541 149.776C25.9207 150.139 26.3367 150.32 26.9021 150.32Z" fill="#8B8687"/>
<line x1="56.8027" y1="77.5" x2="1216" y2="77.5" stroke="#8B8687"/>
<path d="M11.0801 82.192V84H3.27207V82.416C4.7334 81.52 6.00274 80.5653 7.08007 79.552C8.1574 78.528 8.69607 77.4453 8.69607 76.304C8.69607 75.7813 8.5574 75.36 8.28007 75.04C8.0134 74.72 7.6134 74.56 7.08007 74.56C6.4294 74.56 5.95474 74.784 5.65607 75.232C5.36807 75.68 5.20807 76.24 5.17607 76.912L3.28807 76.768C3.28807 76.064 3.4374 75.4027 3.73607 74.784C4.03474 74.1653 4.47207 73.664 5.04807 73.28C5.63474 72.896 6.32274 72.704 7.11207 72.704C7.79474 72.704 8.3974 72.848 8.92007 73.136C9.4534 73.424 9.8694 73.8293 10.1681 74.352C10.4667 74.8747 10.6161 75.4773 10.6161 76.16C10.6161 76.9493 10.4187 77.7333 10.0241 78.512C9.6294 79.28 9.12274 79.9787 8.50407 80.608C7.8854 81.2373 7.23474 81.7653 6.55207 82.192H11.0801ZM17.2391 76.336C17.9644 76.336 18.6151 76.5067 19.1911 76.848C19.7671 77.1893 20.2151 77.6533 20.5351 78.24C20.8657 78.816 21.0311 79.44 21.0311 80.112C21.0311 80.816 20.8551 81.4827 20.5031 82.112C20.1511 82.7307 19.6604 83.2267 19.0311 83.6C18.4124 83.9733 17.7191 84.16 16.9511 84.16C16.2577 84.16 15.6177 84.0107 15.0311 83.712C14.4551 83.4133 13.9804 83.008 13.6071 82.496C13.2337 81.9733 13.0044 81.4027 12.9191 80.784L14.8071 80.464C14.8711 80.9653 15.0844 81.4027 15.4471 81.776C15.8204 82.1387 16.3164 82.32 16.9351 82.32C17.5964 82.32 18.1031 82.1013 18.4551 81.664C18.8177 81.2267 18.9991 80.7093 18.9991 80.112C18.9991 79.5467 18.8284 79.0773 18.4871 78.704C18.1457 78.32 17.6444 78.128 16.9831 78.128C16.1511 78.128 15.5111 78.4747 15.0631 79.168L13.2551 78.72L14.3271 72.848H20.5351V74.688H15.9111L15.5111 76.816C16.0231 76.496 16.5991 76.336 17.2391 76.336ZM26.9501 84.16C25.4141 84.16 24.3847 83.6053 23.8621 82.496C23.3394 81.376 23.0781 80.0213 23.0781 78.432C23.0781 76.8213 23.3287 75.4613 23.8301 74.352C24.3421 73.232 25.3447 72.672 26.8381 72.672C28.2461 72.672 29.2381 73.2267 29.8141 74.336C30.4007 75.4347 30.6941 76.8053 30.6941 78.448C30.6941 80.08 30.4114 81.44 29.8461 82.528C29.2807 83.616 28.3154 84.16 26.9501 84.16ZM26.9021 82.32C27.4247 82.32 27.8087 82.1333 28.0541 81.76C28.3101 81.3867 28.4701 80.9387 28.5341 80.416C28.5981 79.8827 28.6301 79.216 28.6301 78.416C28.6301 77.5947 28.5981 76.9227 28.5341 76.4C28.4701 75.8667 28.3047 75.4187 28.0381 75.056C27.7821 74.6933 27.3821 74.512 26.8381 74.512C26.2941 74.512 25.8887 74.6933 25.6221 75.056C25.3661 75.4187 25.2061 75.8667 25.1421 76.4C25.0781 76.9333 25.0461 77.6107 25.0461 78.432C25.0461 79.232 25.0781 79.8987 25.1421 80.432C25.2167 80.9547 25.3874 81.4027 25.6541 81.776C25.9207 82.1387 26.3367 82.32 26.9021 82.32Z" fill="#8B8687"/>
<line x1="56.8027" y1="9.5" x2="1216" y2="9.5" stroke="#8B8687"/>
<path d="M7.08007 16.16C6.32274 16.16 5.6294 16.0213 5.00007 15.744C4.37074 15.4667 3.8694 15.0507 3.49607 14.496C3.12274 13.9413 2.93607 13.2693 2.93607 12.48L4.84007 12.368C4.84007 12.9867 5.0534 13.4667 5.48007 13.808C5.90674 14.1493 6.45607 14.32 7.12807 14.32C7.74674 14.32 8.25874 14.1707 8.66407 13.872C9.08007 13.5733 9.28807 13.12 9.28807 12.512C9.28807 12.0427 9.15474 11.6907 8.88807 11.456C8.63207 11.2213 8.3174 11.0773 7.94407 11.024C7.57074 10.96 7.1174 10.928 6.58407 10.928V9.408C7.99207 9.408 8.69607 8.93333 8.69607 7.984C8.69607 7.504 8.5414 7.14133 8.23207 6.896C7.9334 6.65067 7.5494 6.528 7.08007 6.528C6.56807 6.528 6.1574 6.672 5.84807 6.96C5.53874 7.23733 5.37874 7.62667 5.36807 8.128L3.48007 8C3.48007 7.328 3.64007 6.74133 3.96007 6.24C4.28007 5.73867 4.71207 5.35467 5.25607 5.088C5.80007 4.82133 6.3974 4.688 7.04807 4.688C7.6774 4.688 8.26407 4.81067 8.80807 5.056C9.35207 5.30133 9.7894 5.65867 10.1201 6.128C10.4507 6.58667 10.6161 7.12533 10.6161 7.744C10.6161 8.20267 10.5094 8.624 10.2961 9.008C10.0934 9.392 9.76807 9.70667 9.32007 9.952C9.9494 10.1547 10.4187 10.5067 10.7281 11.008C11.0481 11.4987 11.2081 12.0693 11.2081 12.72C11.2081 13.4453 11.0161 14.0693 10.6321 14.592C10.2587 15.104 9.7574 15.4933 9.12807 15.76C8.5094 16.0267 7.82674 16.16 7.08007 16.16ZM17.0951 16.16C15.5591 16.16 14.5297 15.6053 14.0071 14.496C13.4844 13.376 13.2231 12.0213 13.2231 10.432C13.2231 8.82133 13.4737 7.46133 13.9751 6.352C14.4871 5.232 15.4897 4.672 16.9831 4.672C18.3911 4.672 19.3831 5.22667 19.9591 6.336C20.5457 7.43467 20.8391 8.80533 20.8391 10.448C20.8391 12.08 20.5564 13.44 19.9911 14.528C19.4257 15.616 18.4604 16.16 17.0951 16.16ZM17.0471 14.32C17.5697 14.32 17.9537 14.1333 18.1991 13.76C18.4551 13.3867 18.6151 12.9387 18.6791 12.416C18.7431 11.8827 18.7751 11.216 18.7751 10.416C18.7751 9.59467 18.7431 8.92267 18.6791 8.4C18.6151 7.86667 18.4497 7.41867 18.1831 7.056C17.9271 6.69333 17.5271 6.512 16.9831 6.512C16.4391 6.512 16.0337 6.69333 15.7671 7.056C15.5111 7.41867 15.3511 7.86667 15.2871 8.4C15.2231 8.93333 15.1911 9.61067 15.1911 10.432C15.1911 11.232 15.2231 11.8987 15.2871 12.432C15.3617 12.9547 15.5324 13.4027 15.7991 13.776C16.0657 14.1387 16.4817 14.32 17.0471 14.32ZM26.9501 16.16C25.4141 16.16 24.3847 15.6053 23.8621 14.496C23.3394 13.376 23.0781 12.0213 23.0781 10.432C23.0781 8.82133 23.3287 7.46133 23.8301 6.352C24.3421 5.232 25.3447 4.672 26.8381 4.672C28.2461 4.672 29.2381 5.22667 29.8141 6.336C30.4007 7.43467 30.6941 8.80533 30.6941 10.448C30.6941 12.08 30.4114 13.44 29.8461 14.528C29.2807 15.616 28.3154 16.16 26.9501 16.16ZM26.9021 14.32C27.4247 14.32 27.8087 14.1333 28.0541 13.76C28.3101 13.3867 28.4701 12.9387 28.5341 12.416C28.5981 11.8827 28.6301 11.216 28.6301 10.416C28.6301 9.59467 28.5981 8.92267 28.5341 8.4C28.4701 7.86667 28.3047 7.41867 28.0381 7.056C27.7821 6.69333 27.3821 6.512 26.8381 6.512C26.2941 6.512 25.8887 6.69333 25.6221 7.056C25.3661 7.41867 25.2061 7.86667 25.1421 8.4C25.0781 8.93333 25.0461 9.61067 25.0461 10.432C25.0461 11.232 25.0781 11.8987 25.1421 12.432C25.2167 12.9547 25.3874 13.4027 25.6541 13.776C25.9207 14.1387 26.3367 14.32 26.9021 14.32Z" fill="#8B8687"/>
<path d="M8.85607 276.848V288H6.93607V280.192H4.32807V278.592H5.81607C6.20007 278.592 6.48274 278.507 6.66407 278.336C6.8454 278.165 6.93607 277.893 6.93607 277.52V276.848H8.85607ZM17.0951 288.16C15.5591 288.16 14.5297 287.605 14.0071 286.496C13.4844 285.376 13.2231 284.021 13.2231 282.432C13.2231 280.821 13.4737 279.461 13.9751 278.352C14.4871 277.232 15.4897 276.672 16.9831 276.672C18.3911 276.672 19.3831 277.227 19.9591 278.336C20.5457 279.435 20.8391 280.805 20.8391 282.448C20.8391 284.08 20.5564 285.44 19.9911 286.528C19.4257 287.616 18.4604 288.16 17.0951 288.16ZM17.0471 286.32C17.5697 286.32 17.9537 286.133 18.1991 285.76C18.4551 285.387 18.6151 284.939 18.6791 284.416C18.7431 283.883 18.7751 283.216 18.7751 282.416C18.7751 281.595 18.7431 280.923 18.6791 280.4C18.6151 279.867 18.4497 279.419 18.1831 279.056C17.9271 278.693 17.5271 278.512 16.9831 278.512C16.4391 278.512 16.0337 278.693 15.7671 279.056C15.5111 279.419 15.3511 279.867 15.2871 280.4C15.2231 280.933 15.1911 281.611 15.1911 282.432C15.1911 283.232 15.2231 283.899 15.2871 284.432C15.3617 284.955 15.5324 285.403 15.7991 285.776C16.0657 286.139 16.4817 286.32 17.0471 286.32ZM26.9501 288.16C25.4141 288.16 24.3847 287.605 23.8621 286.496C23.3394 285.376 23.0781 284.021 23.0781 282.432C23.0781 280.821 23.3287 279.461 23.8301 278.352C24.3421 277.232 25.3447 276.672 26.8381 276.672C28.2461 276.672 29.2381 277.227 29.8141 278.336C30.4007 279.435 30.6941 280.805 30.6941 282.448C30.6941 284.08 30.4114 285.44 29.8461 286.528C29.2807 287.616 28.3154 288.16 26.9501 288.16ZM26.9021 286.32C27.4247 286.32 27.8087 286.133 28.0541 285.76C28.3101 285.387 28.4701 284.939 28.5341 284.416C28.5981 283.883 28.6301 283.216 28.6301 282.416C28.6301 281.595 28.5981 280.923 28.5341 280.4C28.4701 279.867 28.3047 279.419 28.0381 279.056C27.7821 278.693 27.3821 278.512 26.8381 278.512C26.2941 278.512 25.8887 278.693 25.6221 279.056C25.3661 279.419 25.2061 279.867 25.1421 280.4C25.0781 280.933 25.0461 281.611 25.0461 282.432C25.0461 283.232 25.0781 283.899 25.1421 284.432C25.2167 284.955 25.3874 285.403 25.6541 285.776C25.9207 286.139 26.3367 286.32 26.9021 286.32Z" fill="#8B8687"/>
<line x1="56.8027" y1="281.5" x2="1216" y2="281.5" stroke="#8B8687"/>
<path d="M11.9808 348.336C12.7061 348.336 13.3568 348.507 13.9328 348.848C14.5088 349.189 14.9568 349.653 15.2768 350.24C15.6075 350.816 15.7728 351.44 15.7728 352.112C15.7728 352.816 15.5968 353.483 15.2448 354.112C14.8928 354.731 14.4021 355.227 13.7728 355.6C13.1541 355.973 12.4608 356.16 11.6928 356.16C10.9995 356.16 10.3595 356.011 9.77279 355.712C9.19679 355.413 8.72212 355.008 8.34879 354.496C7.97546 353.973 7.74612 353.403 7.66079 352.784L9.54879 352.464C9.61279 352.965 9.82612 353.403 10.1888 353.776C10.5621 354.139 11.0581 354.32 11.6768 354.32C12.3381 354.32 12.8448 354.101 13.1968 353.664C13.5595 353.227 13.7408 352.709 13.7408 352.112C13.7408 351.547 13.5701 351.077 13.2288 350.704C12.8875 350.32 12.3861 350.128 11.7248 350.128C10.8928 350.128 10.2528 350.475 9.80479 351.168L7.99679 350.72L9.06879 344.848H15.2768V346.688H10.6528L10.2528 348.816C10.7648 348.496 11.3408 348.336 11.9808 348.336ZM21.6918 356.16C20.1558 356.16 19.1265 355.605 18.6038 354.496C18.0811 353.376 17.8198 352.021 17.8198 350.432C17.8198 348.821 18.0705 347.461 18.5718 346.352C19.0838 345.232 20.0865 344.672 21.5798 344.672C22.9878 344.672 23.9798 345.227 24.5558 346.336C25.1425 347.435 25.4358 348.805 25.4358 350.448C25.4358 352.08 25.1531 353.44 24.5878 354.528C24.0225 355.616 23.0571 356.16 21.6918 356.16ZM21.6438 354.32C22.1665 354.32 22.5505 354.133 22.7958 353.76C23.0518 353.387 23.2118 352.939 23.2758 352.416C23.3398 351.883 23.3718 351.216 23.3718 350.416C23.3718 349.595 23.3398 348.923 23.2758 348.4C23.2118 347.867 23.0465 347.419 22.7798 347.056C22.5238 346.693 22.1238 346.512 21.5798 346.512C21.0358 346.512 20.6305 346.693 20.3638 347.056C20.1078 347.419 19.9478 347.867 19.8838 348.4C19.8198 348.933 19.7878 349.611 19.7878 350.432C19.7878 351.232 19.8198 351.899 19.8838 352.432C19.9585 352.955 20.1291 353.403 20.3958 353.776C20.6625 354.139 21.0785 354.32 21.6438 354.32Z" fill="#8B8687"/>
<line x1="56.8047" y1="349.5" x2="1216" y2="349.5" stroke="#8B8687"/>
<path d="M16.4306 424.16C14.8946 424.16 13.8652 423.605 13.3426 422.496C12.8199 421.376 12.5586 420.021 12.5586 418.432C12.5586 416.821 12.8092 415.461 13.3106 414.352C13.8226 413.232 14.8252 412.672 16.3186 412.672C17.7266 412.672 18.7186 413.227 19.2946 414.336C19.8812 415.435 20.1746 416.805 20.1746 418.448C20.1746 420.08 19.8919 421.44 19.3266 422.528C18.7612 423.616 17.7959 424.16 16.4306 424.16ZM16.3826 422.32C16.9052 422.32 17.2892 422.133 17.5346 421.76C17.7906 421.387 17.9506 420.939 18.0146 420.416C18.0786 419.883 18.1106 419.216 18.1106 418.416C18.1106 417.595 18.0786 416.923 18.0146 416.4C17.9506 415.867 17.7852 415.419 17.5186 415.056C17.2626 414.693 16.8626 414.512 16.3186 414.512C15.7746 414.512 15.3692 414.693 15.1026 415.056C14.8466 415.419 14.6866 415.867 14.6226 416.4C14.5586 416.933 14.5266 417.611 14.5266 418.432C14.5266 419.232 14.5586 419.899 14.6226 420.432C14.6972 420.955 14.8679 421.403 15.1346 421.776C15.4012 422.139 15.8172 422.32 16.3826 422.32Z" fill="#8B8687"/>
<line x1="56.8027" y1="417.5" x2="1216" y2="417.5" stroke="#8B8687"/>
<path d="M70.1631 456.848V468H68.0831L63.4111 460.288V468H61.4111V456.848H63.4751L68.1631 464.528V456.848H70.1631ZM76.3667 468.16C75.5774 468.16 74.8787 467.979 74.2707 467.616C73.6734 467.243 73.2147 466.741 72.8947 466.112C72.5747 465.483 72.4147 464.795 72.4147 464.048C72.4147 463.301 72.5747 462.619 72.8947 462C73.2147 461.371 73.6734 460.875 74.2707 460.512C74.8787 460.139 75.5774 459.952 76.3667 459.952C77.1561 459.952 77.8494 460.139 78.4467 460.512C79.0441 460.875 79.5027 461.371 79.8227 462C80.1534 462.619 80.3187 463.301 80.3187 464.048C80.3187 464.795 80.1534 465.483 79.8227 466.112C79.5027 466.741 79.0441 467.243 78.4467 467.616C77.8494 467.979 77.1561 468.16 76.3667 468.16ZM76.3667 466.48C77.0494 466.48 77.5561 466.251 77.8867 465.792C78.2281 465.333 78.3987 464.752 78.3987 464.048C78.3987 463.344 78.2281 462.768 77.8867 462.32C77.5561 461.861 77.0494 461.632 76.3667 461.632C75.6841 461.632 75.1721 461.861 74.8307 462.32C74.5001 462.768 74.3347 463.344 74.3347 464.048C74.3347 464.752 74.5001 465.333 74.8307 465.792C75.1721 466.251 75.6841 466.48 76.3667 466.48ZM80.8987 460.112H82.9947L84.8987 465.504L86.8347 460.112H88.9147L85.6987 468H84.1147L80.8987 460.112ZM96.9237 463.952C96.9237 464.187 96.9077 464.432 96.8758 464.688H91.4677C91.5104 465.221 91.6971 465.643 92.0278 465.952C92.3584 466.261 92.8277 466.416 93.4358 466.416C94.2037 466.416 94.8331 466.133 95.3238 465.568L96.6518 466.736C96.2144 467.216 95.7291 467.573 95.1958 467.808C94.6731 468.043 94.0811 468.16 93.4198 468.16C92.5558 468.16 91.8304 467.973 91.2437 467.6C90.6677 467.227 90.2411 466.736 89.9637 466.128C89.6864 465.509 89.5477 464.832 89.5477 464.096C89.5477 463.371 89.6811 462.693 89.9477 462.064C90.2251 461.435 90.6411 460.928 91.1957 460.544C91.7611 460.149 92.4597 459.952 93.2917 459.952C94.0811 459.952 94.7477 460.128 95.2917 460.48C95.8357 460.832 96.2411 461.312 96.5078 461.92C96.7851 462.528 96.9237 463.205 96.9237 463.952ZM95.0838 463.168C95.0731 462.677 94.8971 462.288 94.5557 462C94.2144 461.701 93.7877 461.552 93.2758 461.552C92.7318 461.552 92.3051 461.712 91.9957 462.032C91.6971 462.341 91.5157 462.72 91.4517 463.168H95.0838ZM107.797 459.952C108.693 459.952 109.375 460.245 109.845 460.832C110.314 461.408 110.549 462.123 110.549 462.976V468H108.629V463.552C108.629 462.272 108.181 461.632 107.285 461.632C106.783 461.632 106.421 461.792 106.197 462.112C105.973 462.421 105.839 462.789 105.797 463.216C105.754 463.632 105.733 464.224 105.733 464.992V468H103.813V463.552C103.813 462.272 103.37 461.632 102.485 461.632C101.983 461.632 101.621 461.792 101.397 462.112C101.173 462.421 101.034 462.795 100.981 463.232C100.938 463.659 100.917 464.245 100.917 464.992V468H98.9966L98.9806 460.112H100.837V461.104C101.285 460.336 101.989 459.952 102.949 459.952C103.439 459.952 103.887 460.069 104.293 460.304C104.709 460.539 105.029 460.939 105.253 461.504C105.541 460.949 105.898 460.555 106.325 460.32C106.751 460.075 107.242 459.952 107.797 459.952ZM113.502 465.92H115.438V468H113.502V465.92ZM77.638 486.192V488H69.83V486.416C71.2913 485.52 72.5607 484.565 73.638 483.552C74.7153 482.528 75.254 481.445 75.254 480.304C75.254 479.781 75.1153 479.36 74.838 479.04C74.5713 478.72 74.1713 478.56 73.638 478.56C72.9873 478.56 72.5127 478.784 72.214 479.232C71.926 479.68 71.766 480.24 71.734 480.912L69.846 480.768C69.846 480.064 69.9953 479.403 70.294 478.784C70.5927 478.165 71.03 477.664 71.606 477.28C72.1927 476.896 72.8807 476.704 73.67 476.704C74.3527 476.704 74.9553 476.848 75.478 477.136C76.0113 477.424 76.4273 477.829 76.726 478.352C77.0247 478.875 77.174 479.477 77.174 480.16C77.174 480.949 76.9767 481.733 76.582 482.512C76.1873 483.28 75.6807 483.979 75.062 484.608C74.4433 485.237 73.7927 485.765 73.11 486.192H77.638ZM83.653 488.16C82.117 488.16 81.0877 487.605 80.565 486.496C80.0423 485.376 79.781 484.021 79.781 482.432C79.781 480.821 80.0317 479.461 80.533 478.352C81.045 477.232 82.0477 476.672 83.541 476.672C84.949 476.672 85.941 477.227 86.517 478.336C87.1037 479.435 87.397 480.805 87.397 482.448C87.397 484.08 87.1143 485.44 86.549 486.528C85.9837 487.616 85.0183 488.16 83.653 488.16ZM83.605 486.32C84.1277 486.32 84.5117 486.133 84.757 485.76C85.013 485.387 85.173 484.939 85.237 484.416C85.301 483.883 85.333 483.216 85.333 482.416C85.333 481.595 85.301 480.923 85.237 480.4C85.173 479.867 85.0077 479.419 84.741 479.056C84.485 478.693 84.085 478.512 83.541 478.512C82.997 478.512 82.5917 478.693 82.325 479.056C82.069 479.419 81.909 479.867 81.845 480.4C81.781 480.933 81.749 481.611 81.749 482.432C81.749 483.232 81.781 483.899 81.845 484.432C81.9197 484.955 82.0903 485.403 82.357 485.776C82.6237 486.139 83.0397 486.32 83.605 486.32ZM95.124 476.848V488H93.204V480.192H90.596V478.592H92.084C92.468 478.592 92.7507 478.507 92.932 478.336C93.1133 478.165 93.204 477.893 93.204 477.52V476.848H95.124ZM103.267 476.688C104.014 476.688 104.696 476.853 105.315 477.184C105.944 477.515 106.44 477.973 106.803 478.56C107.166 479.147 107.347 479.813 107.347 480.56C107.347 481.285 107.139 481.979 106.723 482.64L103.395 488H101.187L103.539 484.384C103.283 484.405 103.096 484.416 102.979 484.416C102.232 484.416 101.571 484.251 100.995 483.92C100.43 483.579 99.9923 483.12 99.683 482.544C99.3737 481.957 99.219 481.301 99.219 480.576C99.219 479.829 99.4003 479.163 99.763 478.576C100.126 477.979 100.616 477.515 101.235 477.184C101.854 476.853 102.531 476.688 103.267 476.688ZM103.267 482.624C103.875 482.624 104.376 482.443 104.771 482.08C105.176 481.707 105.379 481.205 105.379 480.576C105.379 479.947 105.176 479.451 104.771 479.088C104.376 478.715 103.875 478.528 103.267 478.528C102.67 478.528 102.168 478.715 101.763 479.088C101.368 479.461 101.171 479.957 101.171 480.576C101.171 481.195 101.368 481.691 101.763 482.064C102.168 482.437 102.67 482.624 103.267 482.624Z" fill="#8B8687"/>
<path d="M201.474 468.24C200.386 468.24 199.501 467.915 198.818 467.264C198.146 466.603 197.773 465.691 197.698 464.528L199.666 464.304C199.709 465.019 199.879 465.547 200.178 465.888C200.477 466.219 200.909 466.384 201.474 466.384C202.071 466.384 202.514 466.192 202.802 465.808C203.09 465.424 203.234 464.827 203.234 464.016V458.688H199.026V456.848H205.234V464.128C205.234 465.408 204.898 466.416 204.226 467.152C203.554 467.877 202.637 468.24 201.474 468.24ZM211.036 459.952C212.082 459.952 212.903 460.229 213.5 460.784C214.108 461.328 214.412 462.075 214.412 463.024V468H212.652L212.492 466.976C212.258 467.349 211.927 467.643 211.5 467.856C211.084 468.059 210.615 468.16 210.092 468.16C209.548 468.16 209.058 468.053 208.62 467.84C208.194 467.616 207.858 467.307 207.612 466.912C207.367 466.517 207.244 466.075 207.244 465.584C207.244 465.115 207.346 464.709 207.548 464.368C207.751 464.027 208.044 463.771 208.428 463.6C208.94 463.365 209.639 463.248 210.524 463.248H212.492V463.024C212.492 462.597 212.359 462.261 212.092 462.016C211.826 461.76 211.463 461.632 211.004 461.632C210.599 461.632 210.215 461.733 209.852 461.936C209.49 462.139 209.164 462.432 208.876 462.816L207.484 461.648C208.423 460.517 209.607 459.952 211.036 459.952ZM210.396 466.528C210.972 466.528 211.463 466.352 211.868 466C212.284 465.637 212.492 465.2 212.492 464.688H210.78C210.162 464.688 209.73 464.779 209.484 464.96C209.271 465.109 209.164 465.328 209.164 465.616C209.164 465.893 209.271 466.117 209.484 466.288C209.708 466.448 210.012 466.528 210.396 466.528ZM221.217 459.952C222.103 459.952 222.785 460.213 223.265 460.736C223.756 461.248 224.001 461.973 224.001 462.912V468H222.081V463.392C222.081 462.912 221.996 462.501 221.825 462.16C221.655 461.808 221.255 461.632 220.625 461.632C220.071 461.632 219.66 461.792 219.393 462.112C219.137 462.421 218.977 462.795 218.913 463.232C218.86 463.659 218.833 464.197 218.833 464.848V468H216.913V460.112H218.833V461.024C219.1 460.661 219.436 460.395 219.841 460.224C220.257 460.043 220.716 459.952 221.217 459.952ZM225.209 460.112H227.305L229.209 465.504L231.145 460.112H233.225L230.009 468H228.425L225.209 460.112ZM234.748 460.112H236.668V468H234.748V460.112ZM234.7 456.848H236.716V458.624H234.7V456.848ZM246.105 463.952C246.105 464.187 246.089 464.432 246.057 464.688H240.649C240.691 465.221 240.878 465.643 241.209 465.952C241.539 466.261 242.009 466.416 242.617 466.416C243.385 466.416 244.014 466.133 244.505 465.568L245.833 466.736C245.395 467.216 244.91 467.573 244.377 467.808C243.854 468.043 243.262 468.16 242.601 468.16C241.737 468.16 241.011 467.973 240.425 467.6C239.849 467.227 239.422 466.736 239.145 466.128C238.867 465.509 238.729 464.832 238.729 464.096C238.729 463.371 238.862 462.693 239.129 462.064C239.406 461.435 239.822 460.928 240.377 460.544C240.942 460.149 241.641 459.952 242.473 459.952C243.262 459.952 243.929 460.128 244.473 460.48C245.017 460.832 245.422 461.312 245.689 461.92C245.966 462.528 246.105 463.205 246.105 463.952ZM244.265 463.168C244.254 462.677 244.078 462.288 243.737 462C243.395 461.701 242.969 461.552 242.457 461.552C241.913 461.552 241.486 461.712 241.177 462.032C240.878 462.341 240.697 462.72 240.633 463.168H244.265ZM252.21 459.952C252.732 459.952 253.234 460.101 253.714 460.4L252.786 462.096C252.508 461.915 252.188 461.824 251.826 461.824C250.663 461.824 250.082 462.56 250.082 464.032V468H248.162V460.112H250.098V461.456C250.258 460.987 250.53 460.619 250.914 460.352C251.308 460.085 251.74 459.952 252.21 459.952ZM214.638 486.192V488H206.83V486.416C208.291 485.52 209.561 484.565 210.638 483.552C211.715 482.528 212.254 481.445 212.254 480.304C212.254 479.781 212.115 479.36 211.838 479.04C211.571 478.72 211.171 478.56 210.638 478.56C209.987 478.56 209.513 478.784 209.214 479.232C208.926 479.68 208.766 480.24 208.734 480.912L206.846 480.768C206.846 480.064 206.995 479.403 207.294 478.784C207.593 478.165 208.03 477.664 208.606 477.28C209.193 476.896 209.881 476.704 210.67 476.704C211.353 476.704 211.955 476.848 212.478 477.136C213.011 477.424 213.427 477.829 213.726 478.352C214.025 478.875 214.174 479.477 214.174 480.16C214.174 480.949 213.977 481.733 213.582 482.512C213.187 483.28 212.681 483.979 212.062 484.608C211.443 485.237 210.793 485.765 210.11 486.192H214.638ZM220.653 488.16C219.117 488.16 218.088 487.605 217.565 486.496C217.042 485.376 216.781 484.021 216.781 482.432C216.781 480.821 217.032 479.461 217.533 478.352C218.045 477.232 219.048 476.672 220.541 476.672C221.949 476.672 222.941 477.227 223.517 478.336C224.104 479.435 224.397 480.805 224.397 482.448C224.397 484.08 224.114 485.44 223.549 486.528C222.984 487.616 222.018 488.16 220.653 488.16ZM220.605 486.32C221.128 486.32 221.512 486.133 221.757 485.76C222.013 485.387 222.173 484.939 222.237 484.416C222.301 483.883 222.333 483.216 222.333 482.416C222.333 481.595 222.301 480.923 222.237 480.4C222.173 479.867 222.008 479.419 221.741 479.056C221.485 478.693 221.085 478.512 220.541 478.512C219.997 478.512 219.592 478.693 219.325 479.056C219.069 479.419 218.909 479.867 218.845 480.4C218.781 480.933 218.749 481.611 218.749 482.432C218.749 483.232 218.781 483.899 218.845 484.432C218.92 484.955 219.09 485.403 219.357 485.776C219.624 486.139 220.04 486.32 220.605 486.32ZM234.348 486.192V488H226.54V486.416C228.001 485.52 229.271 484.565 230.348 483.552C231.425 482.528 231.964 481.445 231.964 480.304C231.964 479.781 231.825 479.36 231.548 479.04C231.281 478.72 230.881 478.56 230.348 478.56C229.697 478.56 229.223 478.784 228.924 479.232C228.636 479.68 228.476 480.24 228.444 480.912L226.556 480.768C226.556 480.064 226.705 479.403 227.004 478.784C227.303 478.165 227.74 477.664 228.316 477.28C228.903 476.896 229.591 476.704 230.38 476.704C231.063 476.704 231.665 476.848 232.188 477.136C232.721 477.424 233.137 477.829 233.436 478.352C233.735 478.875 233.884 479.477 233.884 480.16C233.884 480.949 233.687 481.733 233.292 482.512C232.897 483.28 232.391 483.979 231.772 484.608C231.153 485.237 230.503 485.765 229.82 486.192H234.348ZM240.363 488.16C238.827 488.16 237.798 487.605 237.275 486.496C236.752 485.376 236.491 484.021 236.491 482.432C236.491 480.821 236.742 479.461 237.243 478.352C237.755 477.232 238.758 476.672 240.251 476.672C241.659 476.672 242.651 477.227 243.227 478.336C243.814 479.435 244.107 480.805 244.107 482.448C244.107 484.08 243.824 485.44 243.259 486.528C242.694 487.616 241.728 488.16 240.363 488.16ZM240.315 486.32C240.838 486.32 241.222 486.133 241.467 485.76C241.723 485.387 241.883 484.939 241.947 484.416C242.011 483.883 242.043 483.216 242.043 482.416C242.043 481.595 242.011 480.923 241.947 480.4C241.883 479.867 241.718 479.419 241.451 479.056C241.195 478.693 240.795 478.512 240.251 478.512C239.707 478.512 239.302 478.693 239.035 479.056C238.779 479.419 238.619 479.867 238.555 480.4C238.491 480.933 238.459 481.611 238.459 482.432C238.459 483.232 238.491 483.899 238.555 484.432C238.63 484.955 238.8 485.403 239.067 485.776C239.334 486.139 239.75 486.32 240.315 486.32Z" fill="#8B8687"/>
<path d="M347.59 456.848V468H345.59V459.664L342.822 467.024H340.886L338.118 459.664V468H336.118V456.848H338.982L341.846 464.704L344.726 456.848H347.59ZM353.616 459.952C354.661 459.952 355.482 460.229 356.08 460.784C356.688 461.328 356.992 462.075 356.992 463.024V468H355.232L355.072 466.976C354.837 467.349 354.506 467.643 354.08 467.856C353.664 468.059 353.194 468.16 352.672 468.16C352.128 468.16 351.637 468.053 351.2 467.84C350.773 467.616 350.437 467.307 350.192 466.912C349.946 466.517 349.824 466.075 349.824 465.584C349.824 465.115 349.925 464.709 350.128 464.368C350.33 464.027 350.624 463.771 351.008 463.6C351.52 463.365 352.218 463.248 353.104 463.248H355.072V463.024C355.072 462.597 354.938 462.261 354.672 462.016C354.405 461.76 354.042 461.632 353.584 461.632C353.178 461.632 352.794 461.733 352.432 461.936C352.069 462.139 351.744 462.432 351.456 462.816L350.064 461.648C351.002 460.517 352.186 459.952 353.616 459.952ZM352.976 466.528C353.552 466.528 354.042 466.352 354.448 466C354.864 465.637 355.072 465.2 355.072 464.688H353.36C352.741 464.688 352.309 464.779 352.064 464.96C351.85 465.109 351.744 465.328 351.744 465.616C351.744 465.893 351.85 466.117 352.064 466.288C352.288 466.448 352.592 466.528 352.976 466.528ZM363.541 459.952C364.063 459.952 364.565 460.101 365.045 460.4L364.117 462.096C363.839 461.915 363.519 461.824 363.157 461.824C361.994 461.824 361.413 462.56 361.413 464.032V468H359.493V460.112H361.429V461.456C361.589 460.987 361.861 460.619 362.245 460.352C362.639 460.085 363.071 459.952 363.541 459.952ZM368.718 468.16C367.918 468.16 367.214 467.952 366.606 467.536C366.009 467.109 365.609 466.581 365.406 465.952L366.942 465.264C367.252 466.128 367.812 466.56 368.622 466.56C369.038 466.56 369.353 466.464 369.566 466.272C369.79 466.08 369.902 465.867 369.902 465.632C369.902 465.397 369.79 465.221 369.566 465.104C369.342 464.987 368.974 464.853 368.462 464.704C367.929 464.565 367.486 464.421 367.134 464.272C366.782 464.112 366.478 463.872 366.222 463.552C365.966 463.221 365.838 462.789 365.838 462.256C365.838 461.531 366.116 460.965 366.67 460.56C367.236 460.155 367.924 459.952 368.734 459.952C369.406 459.952 369.998 460.101 370.51 460.4C371.022 460.699 371.428 461.12 371.726 461.664L370.238 462.48C370.078 462.181 369.876 461.941 369.63 461.76C369.385 461.568 369.065 461.472 368.67 461.472C368.372 461.472 368.126 461.536 367.934 461.664C367.753 461.792 367.662 461.952 367.662 462.144C367.662 462.357 367.774 462.523 367.998 462.64C368.233 462.757 368.59 462.88 369.07 463.008C369.625 463.168 370.084 463.328 370.446 463.488C370.809 463.648 371.124 463.893 371.39 464.224C371.657 464.555 371.79 464.987 371.79 465.52C371.79 466.107 371.641 466.597 371.342 466.992C371.054 467.387 370.676 467.68 370.206 467.872C369.737 468.064 369.241 468.16 368.718 468.16ZM342.638 486.192V488H334.83V486.416C336.291 485.52 337.561 484.565 338.638 483.552C339.715 482.528 340.254 481.445 340.254 480.304C340.254 479.781 340.115 479.36 339.838 479.04C339.571 478.72 339.171 478.56 338.638 478.56C337.987 478.56 337.513 478.784 337.214 479.232C336.926 479.68 336.766 480.24 336.734 480.912L334.846 480.768C334.846 480.064 334.995 479.403 335.294 478.784C335.593 478.165 336.03 477.664 336.606 477.28C337.193 476.896 337.881 476.704 338.67 476.704C339.353 476.704 339.955 476.848 340.478 477.136C341.011 477.424 341.427 477.829 341.726 478.352C342.025 478.875 342.174 479.477 342.174 480.16C342.174 480.949 341.977 481.733 341.582 482.512C341.187 483.28 340.681 483.979 340.062 484.608C339.443 485.237 338.793 485.765 338.11 486.192H342.638ZM348.653 488.16C347.117 488.16 346.088 487.605 345.565 486.496C345.042 485.376 344.781 484.021 344.781 482.432C344.781 480.821 345.032 479.461 345.533 478.352C346.045 477.232 347.048 476.672 348.541 476.672C349.949 476.672 350.941 477.227 351.517 478.336C352.104 479.435 352.397 480.805 352.397 482.448C352.397 484.08 352.114 485.44 351.549 486.528C350.984 487.616 350.018 488.16 348.653 488.16ZM348.605 486.32C349.128 486.32 349.512 486.133 349.757 485.76C350.013 485.387 350.173 484.939 350.237 484.416C350.301 483.883 350.333 483.216 350.333 482.416C350.333 481.595 350.301 480.923 350.237 480.4C350.173 479.867 350.008 479.419 349.741 479.056C349.485 478.693 349.085 478.512 348.541 478.512C347.997 478.512 347.592 478.693 347.325 479.056C347.069 479.419 346.909 479.867 346.845 480.4C346.781 480.933 346.749 481.611 346.749 482.432C346.749 483.232 346.781 483.899 346.845 484.432C346.92 484.955 347.09 485.403 347.357 485.776C347.624 486.139 348.04 486.32 348.605 486.32ZM362.348 486.192V488H354.54V486.416C356.001 485.52 357.271 484.565 358.348 483.552C359.425 482.528 359.964 481.445 359.964 480.304C359.964 479.781 359.825 479.36 359.548 479.04C359.281 478.72 358.881 478.56 358.348 478.56C357.697 478.56 357.223 478.784 356.924 479.232C356.636 479.68 356.476 480.24 356.444 480.912L354.556 480.768C354.556 480.064 354.705 479.403 355.004 478.784C355.303 478.165 355.74 477.664 356.316 477.28C356.903 476.896 357.591 476.704 358.38 476.704C359.063 476.704 359.665 476.848 360.188 477.136C360.721 477.424 361.137 477.829 361.436 478.352C361.735 478.875 361.884 479.477 361.884 480.16C361.884 480.949 361.687 481.733 361.292 482.512C360.897 483.28 360.391 483.979 359.772 484.608C359.153 485.237 358.503 485.765 357.82 486.192H362.348ZM368.363 488.16C366.827 488.16 365.798 487.605 365.275 486.496C364.752 485.376 364.491 484.021 364.491 482.432C364.491 480.821 364.742 479.461 365.243 478.352C365.755 477.232 366.758 476.672 368.251 476.672C369.659 476.672 370.651 477.227 371.227 478.336C371.814 479.435 372.107 480.805 372.107 482.448C372.107 484.08 371.824 485.44 371.259 486.528C370.694 487.616 369.728 488.16 368.363 488.16ZM368.315 486.32C368.838 486.32 369.222 486.133 369.467 485.76C369.723 485.387 369.883 484.939 369.947 484.416C370.011 483.883 370.043 483.216 370.043 482.416C370.043 481.595 370.011 480.923 369.947 480.4C369.883 479.867 369.718 479.419 369.451 479.056C369.195 478.693 368.795 478.512 368.251 478.512C367.707 478.512 367.302 478.693 367.035 479.056C366.779 479.419 366.619 479.867 366.555 480.4C366.491 480.933 366.459 481.611 366.459 482.432C366.459 483.232 366.491 483.899 366.555 484.432C366.63 484.955 366.8 485.403 367.067 485.776C367.334 486.139 367.75 486.32 368.315 486.32Z" fill="#8B8687"/>
<path d="M471.47 456.848V468H469.47V459.664L466.702 467.024H464.766L461.998 459.664V468H459.998V456.848H462.862L465.726 464.704L468.606 456.848H471.47ZM477.496 459.952C478.542 459.952 479.363 460.229 479.96 460.784C480.568 461.328 480.872 462.075 480.872 463.024V468H479.112L478.952 466.976C478.718 467.349 478.387 467.643 477.96 467.856C477.544 468.059 477.075 468.16 476.552 468.16C476.008 468.16 475.518 468.053 475.08 467.84C474.654 467.616 474.318 467.307 474.072 466.912C473.827 466.517 473.704 466.075 473.704 465.584C473.704 465.115 473.806 464.709 474.008 464.368C474.211 464.027 474.504 463.771 474.888 463.6C475.4 463.365 476.099 463.248 476.984 463.248H478.952V463.024C478.952 462.597 478.819 462.261 478.552 462.016C478.286 461.76 477.923 461.632 477.464 461.632C477.059 461.632 476.675 461.733 476.312 461.936C475.95 462.139 475.624 462.432 475.336 462.816L473.944 461.648C474.883 460.517 476.067 459.952 477.496 459.952ZM476.856 466.528C477.432 466.528 477.923 466.352 478.328 466C478.744 465.637 478.952 465.2 478.952 464.688H477.24C476.622 464.688 476.19 464.779 475.944 464.96C475.731 465.109 475.624 465.328 475.624 465.616C475.624 465.893 475.731 466.117 475.944 466.288C476.168 466.448 476.472 466.528 476.856 466.528ZM483.373 460.112H485.293V468H483.373V460.112ZM483.325 456.848H485.341V458.624H483.325V456.848ZM461.638 486.192V488H453.83V486.416C455.291 485.52 456.561 484.565 457.638 483.552C458.715 482.528 459.254 481.445 459.254 480.304C459.254 479.781 459.115 479.36 458.838 479.04C458.571 478.72 458.171 478.56 457.638 478.56C456.987 478.56 456.513 478.784 456.214 479.232C455.926 479.68 455.766 480.24 455.734 480.912L453.846 480.768C453.846 480.064 453.995 479.403 454.294 478.784C454.593 478.165 455.03 477.664 455.606 477.28C456.193 476.896 456.881 476.704 457.67 476.704C458.353 476.704 458.955 476.848 459.478 477.136C460.011 477.424 460.427 477.829 460.726 478.352C461.025 478.875 461.174 479.477 461.174 480.16C461.174 480.949 460.977 481.733 460.582 482.512C460.187 483.28 459.681 483.979 459.062 484.608C458.443 485.237 457.793 485.765 457.11 486.192H461.638ZM467.653 488.16C466.117 488.16 465.088 487.605 464.565 486.496C464.042 485.376 463.781 484.021 463.781 482.432C463.781 480.821 464.032 479.461 464.533 478.352C465.045 477.232 466.048 476.672 467.541 476.672C468.949 476.672 469.941 477.227 470.517 478.336C471.104 479.435 471.397 480.805 471.397 482.448C471.397 484.08 471.114 485.44 470.549 486.528C469.984 487.616 469.018 488.16 467.653 488.16ZM467.605 486.32C468.128 486.32 468.512 486.133 468.757 485.76C469.013 485.387 469.173 484.939 469.237 484.416C469.301 483.883 469.333 483.216 469.333 482.416C469.333 481.595 469.301 480.923 469.237 480.4C469.173 479.867 469.008 479.419 468.741 479.056C468.485 478.693 468.085 478.512 467.541 478.512C466.997 478.512 466.592 478.693 466.325 479.056C466.069 479.419 465.909 479.867 465.845 480.4C465.781 480.933 465.749 481.611 465.749 482.432C465.749 483.232 465.781 483.899 465.845 484.432C465.92 484.955 466.09 485.403 466.357 485.776C466.624 486.139 467.04 486.32 467.605 486.32ZM481.348 486.192V488H473.54V486.416C475.001 485.52 476.271 484.565 477.348 483.552C478.425 482.528 478.964 481.445 478.964 480.304C478.964 479.781 478.825 479.36 478.548 479.04C478.281 478.72 477.881 478.56 477.348 478.56C476.697 478.56 476.223 478.784 475.924 479.232C475.636 479.68 475.476 480.24 475.444 480.912L473.556 480.768C473.556 480.064 473.705 479.403 474.004 478.784C474.303 478.165 474.74 477.664 475.316 477.28C475.903 476.896 476.591 476.704 477.38 476.704C478.063 476.704 478.665 476.848 479.188 477.136C479.721 477.424 480.137 477.829 480.436 478.352C480.735 478.875 480.884 479.477 480.884 480.16C480.884 480.949 480.687 481.733 480.292 482.512C479.897 483.28 479.391 483.979 478.772 484.608C478.153 485.237 477.503 485.765 476.82 486.192H481.348ZM487.363 488.16C485.827 488.16 484.798 487.605 484.275 486.496C483.752 485.376 483.491 484.021 483.491 482.432C483.491 480.821 483.742 479.461 484.243 478.352C484.755 477.232 485.758 476.672 487.251 476.672C488.659 476.672 489.651 477.227 490.227 478.336C490.814 479.435 491.107 480.805 491.107 482.448C491.107 484.08 490.824 485.44 490.259 486.528C489.694 487.616 488.728 488.16 487.363 488.16ZM487.315 486.32C487.838 486.32 488.222 486.133 488.467 485.76C488.723 485.387 488.883 484.939 488.947 484.416C489.011 483.883 489.043 483.216 489.043 482.416C489.043 481.595 489.011 480.923 488.947 480.4C488.883 479.867 488.718 479.419 488.451 479.056C488.195 478.693 487.795 478.512 487.251 478.512C486.707 478.512 486.302 478.693 486.035 479.056C485.779 479.419 485.619 479.867 485.555 480.4C485.491 480.933 485.459 481.611 485.459 482.432C485.459 483.232 485.491 483.899 485.555 484.432C485.63 484.955 485.8 485.403 486.067 485.776C486.334 486.139 486.75 486.32 487.315 486.32Z" fill="#8B8687"/>
<path d="M576.458 468.24C575.37 468.24 574.485 467.915 573.802 467.264C573.13 466.603 572.757 465.691 572.682 464.528L574.65 464.304C574.693 465.019 574.864 465.547 575.162 465.888C575.461 466.219 575.893 466.384 576.458 466.384C577.056 466.384 577.498 466.192 577.786 465.808C578.074 465.424 578.218 464.827 578.218 464.016V458.688H574.01V456.848H580.218V464.128C580.218 465.408 579.882 466.416 579.21 467.152C578.538 467.877 577.621 468.24 576.458 468.24ZM589.814 460.112V468H587.894V467.088C587.627 467.451 587.286 467.723 586.87 467.904C586.464 468.075 586.022 468.16 585.542 468.16C584.603 468.16 583.899 467.867 583.43 467.28C582.96 466.693 582.726 465.947 582.726 465.04V460.112H584.646V464.56C584.646 465.061 584.731 465.509 584.902 465.904C585.072 466.288 585.472 466.48 586.102 466.48C586.656 466.48 587.062 466.309 587.318 465.968C587.584 465.627 587.744 465.232 587.798 464.784C587.862 464.336 587.894 463.776 587.894 463.104V460.112H589.814ZM592.538 460.112H594.458V468H592.538V460.112ZM592.49 456.848H594.506V458.624H592.49V456.848ZM598.951 468.16C598.385 468.16 597.932 467.989 597.591 467.648C597.26 467.307 597.095 466.795 597.095 466.112V456.848H599.015V465.984C599.015 466.315 599.201 466.48 599.575 466.48C599.756 466.48 599.959 466.448 600.183 466.384V467.92C599.756 468.08 599.345 468.16 598.951 468.16ZM603.884 468.16C603.318 468.16 602.865 467.989 602.524 467.648C602.193 467.307 602.028 466.795 602.028 466.112V456.848H603.948V465.984C603.948 466.315 604.134 466.48 604.508 466.48C604.689 466.48 604.892 466.448 605.116 466.384V467.92C604.689 468.08 604.278 468.16 603.884 468.16ZM613.761 463.952C613.761 464.187 613.745 464.432 613.713 464.688H608.305C608.348 465.221 608.534 465.643 608.865 465.952C609.196 466.261 609.665 466.416 610.273 466.416C611.041 466.416 611.67 466.133 612.161 465.568L613.489 466.736C613.052 467.216 612.566 467.573 612.033 467.808C611.51 468.043 610.918 468.16 610.257 468.16C609.393 468.16 608.668 467.973 608.081 467.6C607.505 467.227 607.078 466.736 606.801 466.128C606.524 465.509 606.385 464.832 606.385 464.096C606.385 463.371 606.518 462.693 606.785 462.064C607.062 461.435 607.478 460.928 608.033 460.544C608.598 460.149 609.297 459.952 610.129 459.952C610.918 459.952 611.585 460.128 612.129 460.48C612.673 460.832 613.078 461.312 613.345 461.92C613.622 462.528 613.761 463.205 613.761 463.952ZM611.921 463.168C611.91 462.677 611.734 462.288 611.393 462C611.052 461.701 610.625 461.552 610.113 461.552C609.569 461.552 609.142 461.712 608.833 462.032C608.534 462.341 608.353 462.72 608.289 463.168H611.921ZM618.058 461.632V465.648C618.058 465.957 618.143 466.187 618.314 466.336C618.495 466.485 618.746 466.56 619.066 466.56C619.332 466.56 619.652 466.501 620.026 466.384V467.92C619.546 468.08 619.066 468.16 618.586 468.16C617.871 468.16 617.284 467.968 616.826 467.584C616.367 467.189 616.138 466.592 616.138 465.792V461.632H614.858V460.112H616.138V458.272L618.058 456.848V460.112H620.026V461.632H618.058ZM585.638 486.192V488H577.83V486.416C579.291 485.52 580.561 484.565 581.638 483.552C582.715 482.528 583.254 481.445 583.254 480.304C583.254 479.781 583.115 479.36 582.838 479.04C582.571 478.72 582.171 478.56 581.638 478.56C580.987 478.56 580.513 478.784 580.214 479.232C579.926 479.68 579.766 480.24 579.734 480.912L577.846 480.768C577.846 480.064 577.995 479.403 578.294 478.784C578.593 478.165 579.03 477.664 579.606 477.28C580.193 476.896 580.881 476.704 581.67 476.704C582.353 476.704 582.955 476.848 583.478 477.136C584.011 477.424 584.427 477.829 584.726 478.352C585.025 478.875 585.174 479.477 585.174 480.16C585.174 480.949 584.977 481.733 584.582 482.512C584.187 483.28 583.681 483.979 583.062 484.608C582.443 485.237 581.793 485.765 581.11 486.192H585.638ZM591.653 488.16C590.117 488.16 589.088 487.605 588.565 486.496C588.042 485.376 587.781 484.021 587.781 482.432C587.781 480.821 588.032 479.461 588.533 478.352C589.045 477.232 590.048 476.672 591.541 476.672C592.949 476.672 593.941 477.227 594.517 478.336C595.104 479.435 595.397 480.805 595.397 482.448C595.397 484.08 595.114 485.44 594.549 486.528C593.984 487.616 593.018 488.16 591.653 488.16ZM591.605 486.32C592.128 486.32 592.512 486.133 592.757 485.76C593.013 485.387 593.173 484.939 593.237 484.416C593.301 483.883 593.333 483.216 593.333 482.416C593.333 481.595 593.301 480.923 593.237 480.4C593.173 479.867 593.008 479.419 592.741 479.056C592.485 478.693 592.085 478.512 591.541 478.512C590.997 478.512 590.592 478.693 590.325 479.056C590.069 479.419 589.909 479.867 589.845 480.4C589.781 480.933 589.749 481.611 589.749 482.432C589.749 483.232 589.781 483.899 589.845 484.432C589.92 484.955 590.09 485.403 590.357 485.776C590.624 486.139 591.04 486.32 591.605 486.32ZM605.348 486.192V488H597.54V486.416C599.001 485.52 600.271 484.565 601.348 483.552C602.425 482.528 602.964 481.445 602.964 480.304C602.964 479.781 602.825 479.36 602.548 479.04C602.281 478.72 601.881 478.56 601.348 478.56C600.697 478.56 600.223 478.784 599.924 479.232C599.636 479.68 599.476 480.24 599.444 480.912L597.556 480.768C597.556 480.064 597.705 479.403 598.004 478.784C598.303 478.165 598.74 477.664 599.316 477.28C599.903 476.896 600.591 476.704 601.38 476.704C602.063 476.704 602.665 476.848 603.188 477.136C603.721 477.424 604.137 477.829 604.436 478.352C604.735 478.875 604.884 479.477 604.884 480.16C604.884 480.949 604.687 481.733 604.292 482.512C603.897 483.28 603.391 483.979 602.772 484.608C602.153 485.237 601.503 485.765 600.82 486.192H605.348ZM611.363 488.16C609.827 488.16 608.798 487.605 608.275 486.496C607.752 485.376 607.491 484.021 607.491 482.432C607.491 480.821 607.742 479.461 608.243 478.352C608.755 477.232 609.758 476.672 611.251 476.672C612.659 476.672 613.651 477.227 614.227 478.336C614.814 479.435 615.107 480.805 615.107 482.448C615.107 484.08 614.824 485.44 614.259 486.528C613.694 487.616 612.728 488.16 611.363 488.16ZM611.315 486.32C611.838 486.32 612.222 486.133 612.467 485.76C612.723 485.387 612.883 484.939 612.947 484.416C613.011 483.883 613.043 483.216 613.043 482.416C613.043 481.595 613.011 480.923 612.947 480.4C612.883 479.867 612.718 479.419 612.451 479.056C612.195 478.693 611.795 478.512 611.251 478.512C610.707 478.512 610.302 478.693 610.035 479.056C609.779 479.419 609.619 479.867 609.555 480.4C609.491 480.933 609.459 481.611 609.459 482.432C609.459 483.232 609.491 483.899 609.555 484.432C609.63 484.955 609.8 485.403 610.067 485.776C610.334 486.139 610.75 486.32 611.315 486.32Z" fill="#8B8687"/>
<path d="M705.949 468.208C705.213 468.208 704.541 468.069 703.933 467.792C703.325 467.515 702.824 467.125 702.429 466.624C702.035 466.112 701.784 465.52 701.677 464.848L703.661 464.352C703.736 465.013 703.976 465.525 704.381 465.888C704.797 466.251 705.331 466.432 705.981 466.432C706.547 466.432 706.995 466.299 707.325 466.032C707.656 465.765 707.821 465.397 707.821 464.928C707.821 464.544 707.656 464.213 707.325 463.936C707.005 463.659 706.429 463.355 705.597 463.024C704.808 462.715 704.184 462.405 703.725 462.096C703.267 461.787 702.936 461.44 702.733 461.056C702.531 460.661 702.429 460.192 702.429 459.648C702.429 459.051 702.573 458.523 702.861 458.064C703.149 457.605 703.555 457.248 704.077 456.992C704.611 456.736 705.219 456.608 705.901 456.608C706.659 456.608 707.325 456.779 707.901 457.12C708.477 457.461 708.941 457.968 709.293 458.64L707.629 459.664C707.437 459.248 707.187 458.933 706.877 458.72C706.568 458.496 706.221 458.384 705.837 458.384C705.443 458.384 705.107 458.501 704.829 458.736C704.563 458.971 704.429 459.259 704.429 459.6C704.429 459.963 704.584 460.272 704.893 460.528C705.213 460.784 705.8 461.077 706.653 461.408C707.453 461.717 708.083 462.027 708.541 462.336C709 462.645 709.325 462.992 709.517 463.376C709.72 463.76 709.821 464.219 709.821 464.752C709.821 465.435 709.656 466.037 709.325 466.56C709.005 467.083 708.552 467.488 707.965 467.776C707.379 468.064 706.707 468.208 705.949 468.208ZM718.896 463.952C718.896 464.187 718.88 464.432 718.848 464.688H713.44C713.482 465.221 713.669 465.643 714 465.952C714.33 466.261 714.8 466.416 715.408 466.416C716.176 466.416 716.805 466.133 717.296 465.568L718.624 466.736C718.186 467.216 717.701 467.573 717.168 467.808C716.645 468.043 716.053 468.16 715.392 468.16C714.528 468.16 713.802 467.973 713.216 467.6C712.64 467.227 712.213 466.736 711.936 466.128C711.658 465.509 711.52 464.832 711.52 464.096C711.52 463.371 711.653 462.693 711.92 462.064C712.197 461.435 712.613 460.928 713.168 460.544C713.733 460.149 714.432 459.952 715.264 459.952C716.053 459.952 716.72 460.128 717.264 460.48C717.808 460.832 718.213 461.312 718.48 461.92C718.757 462.528 718.896 463.205 718.896 463.952ZM717.056 463.168C717.045 462.677 716.869 462.288 716.528 462C716.186 461.701 715.76 461.552 715.248 461.552C714.704 461.552 714.277 461.712 713.968 462.032C713.669 462.341 713.488 462.72 713.424 463.168H717.056ZM725.16 459.952C726.206 459.952 727.022 460.336 727.608 461.104C728.195 461.861 728.488 462.848 728.488 464.064C728.488 464.907 728.344 465.637 728.056 466.256C727.779 466.875 727.39 467.349 726.888 467.68C726.387 468 725.811 468.16 725.16 468.16C724.712 468.16 724.28 468.075 723.864 467.904C723.459 467.733 723.134 467.499 722.888 467.2V471.264H720.968V460.112H722.888V460.896C723.144 460.576 723.475 460.341 723.88 460.192C724.286 460.032 724.712 459.952 725.16 459.952ZM724.68 466.48C725.31 466.48 725.779 466.272 726.088 465.856C726.408 465.429 726.568 464.827 726.568 464.048C726.568 462.437 725.944 461.632 724.696 461.632C724.024 461.632 723.523 461.851 723.192 462.288C722.872 462.725 722.712 463.312 722.712 464.048C722.712 464.773 722.872 465.36 723.192 465.808C723.523 466.256 724.019 466.48 724.68 466.48ZM732.813 461.632V465.648C732.813 465.957 732.898 466.187 733.069 466.336C733.25 466.485 733.501 466.56 733.821 466.56C734.088 466.56 734.408 466.501 734.781 466.384V467.92C734.301 468.08 733.821 468.16 733.341 468.16C732.626 468.16 732.04 467.968 731.581 467.584C731.122 467.189 730.893 466.592 730.893 465.792V461.632H729.613V460.112H730.893V458.272L732.813 456.848V460.112H734.781V461.632H732.813ZM743.586 463.952C743.586 464.187 743.57 464.432 743.538 464.688H738.13C738.172 465.221 738.359 465.643 738.69 465.952C739.02 466.261 739.49 466.416 740.098 466.416C740.866 466.416 741.495 466.133 741.986 465.568L743.314 466.736C742.876 467.216 742.391 467.573 741.858 467.808C741.335 468.043 740.743 468.16 740.082 468.16C739.218 468.16 738.492 467.973 737.906 467.6C737.33 467.227 736.903 466.736 736.626 466.128C736.348 465.509 736.21 464.832 736.21 464.096C736.21 463.371 736.343 462.693 736.61 462.064C736.887 461.435 737.303 460.928 737.858 460.544C738.423 460.149 739.122 459.952 739.954 459.952C740.743 459.952 741.41 460.128 741.954 460.48C742.498 460.832 742.903 461.312 743.17 461.92C743.447 462.528 743.586 463.205 743.586 463.952ZM741.746 463.168C741.735 462.677 741.559 462.288 741.218 462C740.876 461.701 740.45 461.552 739.938 461.552C739.394 461.552 738.967 461.712 738.658 462.032C738.359 462.341 738.178 462.72 738.114 463.168H741.746ZM754.458 459.952C755.354 459.952 756.037 460.245 756.506 460.832C756.976 461.408 757.21 462.123 757.21 462.976V468H755.29V463.552C755.29 462.272 754.842 461.632 753.946 461.632C753.445 461.632 753.082 461.792 752.858 462.112C752.634 462.421 752.501 462.789 752.458 463.216C752.416 463.632 752.394 464.224 752.394 464.992V468H750.474V463.552C750.474 462.272 750.032 461.632 749.146 461.632C748.645 461.632 748.282 461.792 748.058 462.112C747.834 462.421 747.696 462.795 747.642 463.232C747.6 463.659 747.578 464.245 747.578 464.992V468H745.658L745.642 460.112H747.498V461.104C747.946 460.336 748.65 459.952 749.61 459.952C750.101 459.952 750.549 460.069 750.954 460.304C751.37 460.539 751.69 460.939 751.914 461.504C752.202 460.949 752.56 460.555 752.986 460.32C753.413 460.075 753.904 459.952 754.458 459.952ZM760.164 465.92H762.1V468H760.164V465.92ZM721.638 486.192V488H713.83V486.416C715.291 485.52 716.561 484.565 717.638 483.552C718.715 482.528 719.254 481.445 719.254 480.304C719.254 479.781 719.115 479.36 718.838 479.04C718.571 478.72 718.171 478.56 717.638 478.56C716.987 478.56 716.513 478.784 716.214 479.232C715.926 479.68 715.766 480.24 715.734 480.912L713.846 480.768C713.846 480.064 713.995 479.403 714.294 478.784C714.593 478.165 715.03 477.664 715.606 477.28C716.193 476.896 716.881 476.704 717.67 476.704C718.353 476.704 718.955 476.848 719.478 477.136C720.011 477.424 720.427 477.829 720.726 478.352C721.025 478.875 721.174 479.477 721.174 480.16C721.174 480.949 720.977 481.733 720.582 482.512C720.187 483.28 719.681 483.979 719.062 484.608C718.443 485.237 717.793 485.765 717.11 486.192H721.638ZM727.653 488.16C726.117 488.16 725.088 487.605 724.565 486.496C724.042 485.376 723.781 484.021 723.781 482.432C723.781 480.821 724.032 479.461 724.533 478.352C725.045 477.232 726.048 476.672 727.541 476.672C728.949 476.672 729.941 477.227 730.517 478.336C731.104 479.435 731.397 480.805 731.397 482.448C731.397 484.08 731.114 485.44 730.549 486.528C729.984 487.616 729.018 488.16 727.653 488.16ZM727.605 486.32C728.128 486.32 728.512 486.133 728.757 485.76C729.013 485.387 729.173 484.939 729.237 484.416C729.301 483.883 729.333 483.216 729.333 482.416C729.333 481.595 729.301 480.923 729.237 480.4C729.173 479.867 729.008 479.419 728.741 479.056C728.485 478.693 728.085 478.512 727.541 478.512C726.997 478.512 726.592 478.693 726.325 479.056C726.069 479.419 725.909 479.867 725.845 480.4C725.781 480.933 725.749 481.611 725.749 482.432C725.749 483.232 725.781 483.899 725.845 484.432C725.92 484.955 726.09 485.403 726.357 485.776C726.624 486.139 727.04 486.32 727.605 486.32ZM741.348 486.192V488H733.54V486.416C735.001 485.52 736.271 484.565 737.348 483.552C738.425 482.528 738.964 481.445 738.964 480.304C738.964 479.781 738.825 479.36 738.548 479.04C738.281 478.72 737.881 478.56 737.348 478.56C736.697 478.56 736.223 478.784 735.924 479.232C735.636 479.68 735.476 480.24 735.444 480.912L733.556 480.768C733.556 480.064 733.705 479.403 734.004 478.784C734.303 478.165 734.74 477.664 735.316 477.28C735.903 476.896 736.591 476.704 737.38 476.704C738.063 476.704 738.665 476.848 739.188 477.136C739.721 477.424 740.137 477.829 740.436 478.352C740.735 478.875 740.884 479.477 740.884 480.16C740.884 480.949 740.687 481.733 740.292 482.512C739.897 483.28 739.391 483.979 738.772 484.608C738.153 485.237 737.503 485.765 736.82 486.192H741.348ZM747.363 488.16C745.827 488.16 744.798 487.605 744.275 486.496C743.752 485.376 743.491 484.021 743.491 482.432C743.491 480.821 743.742 479.461 744.243 478.352C744.755 477.232 745.758 476.672 747.251 476.672C748.659 476.672 749.651 477.227 750.227 478.336C750.814 479.435 751.107 480.805 751.107 482.448C751.107 484.08 750.824 485.44 750.259 486.528C749.694 487.616 748.728 488.16 747.363 488.16ZM747.315 486.32C747.838 486.32 748.222 486.133 748.467 485.76C748.723 485.387 748.883 484.939 748.947 484.416C749.011 483.883 749.043 483.216 749.043 482.416C749.043 481.595 749.011 480.923 748.947 480.4C748.883 479.867 748.718 479.419 748.451 479.056C748.195 478.693 747.795 478.512 747.251 478.512C746.707 478.512 746.302 478.693 746.035 479.056C745.779 479.419 745.619 479.867 745.555 480.4C745.491 480.933 745.459 481.611 745.459 482.432C745.459 483.232 745.491 483.899 745.555 484.432C745.63 484.955 745.8 485.403 746.067 485.776C746.334 486.139 746.75 486.32 747.315 486.32Z" fill="#8B8687"/>
<path d="M854.163 456.848V468H852.083L847.411 460.288V468H845.411V456.848H847.475L852.163 464.528V456.848H854.163ZM860.367 468.16C859.577 468.16 858.879 467.979 858.271 467.616C857.673 467.243 857.215 466.741 856.895 466.112C856.575 465.483 856.415 464.795 856.415 464.048C856.415 463.301 856.575 462.619 856.895 462C857.215 461.371 857.673 460.875 858.271 460.512C858.879 460.139 859.577 459.952 860.367 459.952C861.156 459.952 861.849 460.139 862.447 460.512C863.044 460.875 863.503 461.371 863.823 462C864.153 462.619 864.319 463.301 864.319 464.048C864.319 464.795 864.153 465.483 863.823 466.112C863.503 466.741 863.044 467.243 862.447 467.616C861.849 467.979 861.156 468.16 860.367 468.16ZM860.367 466.48C861.049 466.48 861.556 466.251 861.887 465.792C862.228 465.333 862.399 464.752 862.399 464.048C862.399 463.344 862.228 462.768 861.887 462.32C861.556 461.861 861.049 461.632 860.367 461.632C859.684 461.632 859.172 461.861 858.831 462.32C858.5 462.768 858.335 463.344 858.335 464.048C858.335 464.752 858.5 465.333 858.831 465.792C859.172 466.251 859.684 466.48 860.367 466.48ZM864.899 460.112H866.995L868.899 465.504L870.835 460.112H872.915L869.699 468H868.115L864.899 460.112ZM880.924 463.952C880.924 464.187 880.908 464.432 880.876 464.688H875.468C875.51 465.221 875.697 465.643 876.028 465.952C876.358 466.261 876.828 466.416 877.436 466.416C878.204 466.416 878.833 466.133 879.324 465.568L880.652 466.736C880.214 467.216 879.729 467.573 879.196 467.808C878.673 468.043 878.081 468.16 877.42 468.16C876.556 468.16 875.83 467.973 875.244 467.6C874.668 467.227 874.241 466.736 873.964 466.128C873.686 465.509 873.548 464.832 873.548 464.096C873.548 463.371 873.681 462.693 873.948 462.064C874.225 461.435 874.641 460.928 875.196 460.544C875.761 460.149 876.46 459.952 877.292 459.952C878.081 459.952 878.748 460.128 879.292 460.48C879.836 460.832 880.241 461.312 880.508 461.92C880.785 462.528 880.924 463.205 880.924 463.952ZM879.084 463.168C879.073 462.677 878.897 462.288 878.556 462C878.214 461.701 877.788 461.552 877.276 461.552C876.732 461.552 876.305 461.712 875.996 462.032C875.697 462.341 875.516 462.72 875.452 463.168H879.084ZM891.797 459.952C892.693 459.952 893.375 460.245 893.845 460.832C894.314 461.408 894.549 462.123 894.549 462.976V468H892.629V463.552C892.629 462.272 892.181 461.632 891.285 461.632C890.783 461.632 890.421 461.792 890.197 462.112C889.973 462.421 889.839 462.789 889.797 463.216C889.754 463.632 889.733 464.224 889.733 464.992V468H887.813V463.552C887.813 462.272 887.37 461.632 886.485 461.632C885.983 461.632 885.621 461.792 885.397 462.112C885.173 462.421 885.034 462.795 884.981 463.232C884.938 463.659 884.917 464.245 884.917 464.992V468H882.997L882.981 460.112H884.837V461.104C885.285 460.336 885.989 459.952 886.949 459.952C887.439 459.952 887.887 460.069 888.293 460.304C888.709 460.539 889.029 460.939 889.253 461.504C889.541 460.949 889.898 460.555 890.325 460.32C890.751 460.075 891.242 459.952 891.797 459.952ZM897.502 465.92H899.438V468H897.502V465.92ZM861.638 486.192V488H853.83V486.416C855.291 485.52 856.561 484.565 857.638 483.552C858.715 482.528 859.254 481.445 859.254 480.304C859.254 479.781 859.115 479.36 858.838 479.04C858.571 478.72 858.171 478.56 857.638 478.56C856.987 478.56 856.513 478.784 856.214 479.232C855.926 479.68 855.766 480.24 855.734 480.912L853.846 480.768C853.846 480.064 853.995 479.403 854.294 478.784C854.593 478.165 855.03 477.664 855.606 477.28C856.193 476.896 856.881 476.704 857.67 476.704C858.353 476.704 858.955 476.848 859.478 477.136C860.011 477.424 860.427 477.829 860.726 478.352C861.025 478.875 861.174 479.477 861.174 480.16C861.174 480.949 860.977 481.733 860.582 482.512C860.187 483.28 859.681 483.979 859.062 484.608C858.443 485.237 857.793 485.765 857.11 486.192H861.638ZM867.653 488.16C866.117 488.16 865.088 487.605 864.565 486.496C864.042 485.376 863.781 484.021 863.781 482.432C863.781 480.821 864.032 479.461 864.533 478.352C865.045 477.232 866.048 476.672 867.541 476.672C868.949 476.672 869.941 477.227 870.517 478.336C871.104 479.435 871.397 480.805 871.397 482.448C871.397 484.08 871.114 485.44 870.549 486.528C869.984 487.616 869.018 488.16 867.653 488.16ZM867.605 486.32C868.128 486.32 868.512 486.133 868.757 485.76C869.013 485.387 869.173 484.939 869.237 484.416C869.301 483.883 869.333 483.216 869.333 482.416C869.333 481.595 869.301 480.923 869.237 480.4C869.173 479.867 869.008 479.419 868.741 479.056C868.485 478.693 868.085 478.512 867.541 478.512C866.997 478.512 866.592 478.693 866.325 479.056C866.069 479.419 865.909 479.867 865.845 480.4C865.781 480.933 865.749 481.611 865.749 482.432C865.749 483.232 865.781 483.899 865.845 484.432C865.92 484.955 866.09 485.403 866.357 485.776C866.624 486.139 867.04 486.32 867.605 486.32ZM881.348 486.192V488H873.54V486.416C875.001 485.52 876.271 484.565 877.348 483.552C878.425 482.528 878.964 481.445 878.964 480.304C878.964 479.781 878.825 479.36 878.548 479.04C878.281 478.72 877.881 478.56 877.348 478.56C876.697 478.56 876.223 478.784 875.924 479.232C875.636 479.68 875.476 480.24 875.444 480.912L873.556 480.768C873.556 480.064 873.705 479.403 874.004 478.784C874.303 478.165 874.74 477.664 875.316 477.28C875.903 476.896 876.591 476.704 877.38 476.704C878.063 476.704 878.665 476.848 879.188 477.136C879.721 477.424 880.137 477.829 880.436 478.352C880.735 478.875 880.884 479.477 880.884 480.16C880.884 480.949 880.687 481.733 880.292 482.512C879.897 483.28 879.391 483.979 878.772 484.608C878.153 485.237 877.503 485.765 876.82 486.192H881.348ZM887.363 488.16C885.827 488.16 884.798 487.605 884.275 486.496C883.752 485.376 883.491 484.021 883.491 482.432C883.491 480.821 883.742 479.461 884.243 478.352C884.755 477.232 885.758 476.672 887.251 476.672C888.659 476.672 889.651 477.227 890.227 478.336C890.814 479.435 891.107 480.805 891.107 482.448C891.107 484.08 890.824 485.44 890.259 486.528C889.694 487.616 888.728 488.16 887.363 488.16ZM887.315 486.32C887.838 486.32 888.222 486.133 888.467 485.76C888.723 485.387 888.883 484.939 888.947 484.416C889.011 483.883 889.043 483.216 889.043 482.416C889.043 481.595 889.011 480.923 888.947 480.4C888.883 479.867 888.718 479.419 888.451 479.056C888.195 478.693 887.795 478.512 887.251 478.512C886.707 478.512 886.302 478.693 886.035 479.056C885.779 479.419 885.619 479.867 885.555 480.4C885.491 480.933 885.459 481.611 885.459 482.432C885.459 483.232 885.491 483.899 885.555 484.432C885.63 484.955 885.8 485.403 886.067 485.776C886.334 486.139 886.75 486.32 887.315 486.32Z" fill="#8B8687"/>
<path d="M985.474 468.24C984.386 468.24 983.501 467.915 982.818 467.264C982.146 466.603 981.773 465.691 981.698 464.528L983.666 464.304C983.709 465.019 983.879 465.547 984.178 465.888C984.477 466.219 984.909 466.384 985.474 466.384C986.071 466.384 986.514 466.192 986.802 465.808C987.09 465.424 987.234 464.827 987.234 464.016V458.688H983.026V456.848H989.234V464.128C989.234 465.408 988.898 466.416 988.226 467.152C987.554 467.877 986.637 468.24 985.474 468.24ZM995.036 459.952C996.082 459.952 996.903 460.229 997.5 460.784C998.108 461.328 998.412 462.075 998.412 463.024V468H996.652L996.492 466.976C996.258 467.349 995.927 467.643 995.5 467.856C995.084 468.059 994.615 468.16 994.092 468.16C993.548 468.16 993.058 468.053 992.62 467.84C992.194 467.616 991.858 467.307 991.612 466.912C991.367 466.517 991.244 466.075 991.244 465.584C991.244 465.115 991.346 464.709 991.548 464.368C991.751 464.027 992.044 463.771 992.428 463.6C992.94 463.365 993.639 463.248 994.524 463.248H996.492V463.024C996.492 462.597 996.359 462.261 996.092 462.016C995.826 461.76 995.463 461.632 995.004 461.632C994.599 461.632 994.215 461.733 993.852 461.936C993.49 462.139 993.164 462.432 992.876 462.816L991.484 461.648C992.423 460.517 993.607 459.952 995.036 459.952ZM994.396 466.528C994.972 466.528 995.463 466.352 995.868 466C996.284 465.637 996.492 465.2 996.492 464.688H994.78C994.162 464.688 993.73 464.779 993.484 464.96C993.271 465.109 993.164 465.328 993.164 465.616C993.164 465.893 993.271 466.117 993.484 466.288C993.708 466.448 994.012 466.528 994.396 466.528ZM1005.22 459.952C1006.1 459.952 1006.79 460.213 1007.27 460.736C1007.76 461.248 1008 461.973 1008 462.912V468H1006.08V463.392C1006.08 462.912 1006 462.501 1005.83 462.16C1005.65 461.808 1005.25 461.632 1004.63 461.632C1004.07 461.632 1003.66 461.792 1003.39 462.112C1003.14 462.421 1002.98 462.795 1002.91 463.232C1002.86 463.659 1002.83 464.197 1002.83 464.848V468H1000.91V460.112H1002.83V461.024C1003.1 460.661 1003.44 460.395 1003.84 460.224C1004.26 460.043 1004.72 459.952 1005.22 459.952ZM1009.21 460.112H1011.31L1013.21 465.504L1015.15 460.112H1017.23L1014.01 468H1012.43L1009.21 460.112ZM1018.75 460.112H1020.67V468H1018.75V460.112ZM1018.7 456.848H1020.72V458.624H1018.7V456.848ZM1030.1 463.952C1030.1 464.187 1030.09 464.432 1030.06 464.688H1024.65C1024.69 465.221 1024.88 465.643 1025.21 465.952C1025.54 466.261 1026.01 466.416 1026.62 466.416C1027.38 466.416 1028.01 466.133 1028.5 465.568L1029.83 466.736C1029.4 467.216 1028.91 467.573 1028.38 467.808C1027.85 468.043 1027.26 468.16 1026.6 468.16C1025.74 468.16 1025.01 467.973 1024.42 467.6C1023.85 467.227 1023.42 466.736 1023.14 466.128C1022.87 465.509 1022.73 464.832 1022.73 464.096C1022.73 463.371 1022.86 462.693 1023.13 462.064C1023.41 461.435 1023.82 460.928 1024.38 460.544C1024.94 460.149 1025.64 459.952 1026.47 459.952C1027.26 459.952 1027.93 460.128 1028.47 460.48C1029.02 460.832 1029.42 461.312 1029.69 461.92C1029.97 462.528 1030.1 463.205 1030.1 463.952ZM1028.26 463.168C1028.25 462.677 1028.08 462.288 1027.74 462C1027.4 461.701 1026.97 461.552 1026.46 461.552C1025.91 461.552 1025.49 461.712 1025.18 462.032C1024.88 462.341 1024.7 462.72 1024.63 463.168H1028.26ZM1036.21 459.952C1036.73 459.952 1037.23 460.101 1037.71 460.4L1036.79 462.096C1036.51 461.915 1036.19 461.824 1035.83 461.824C1034.66 461.824 1034.08 462.56 1034.08 464.032V468H1032.16V460.112H1034.1V461.456C1034.26 460.987 1034.53 460.619 1034.91 460.352C1035.31 460.085 1035.74 459.952 1036.21 459.952ZM998.638 486.192V488H990.83V486.416C992.291 485.52 993.561 484.565 994.638 483.552C995.715 482.528 996.254 481.445 996.254 480.304C996.254 479.781 996.115 479.36 995.838 479.04C995.571 478.72 995.171 478.56 994.638 478.56C993.987 478.56 993.513 478.784 993.214 479.232C992.926 479.68 992.766 480.24 992.734 480.912L990.846 480.768C990.846 480.064 990.995 479.403 991.294 478.784C991.593 478.165 992.03 477.664 992.606 477.28C993.193 476.896 993.881 476.704 994.67 476.704C995.353 476.704 995.955 476.848 996.478 477.136C997.011 477.424 997.427 477.829 997.726 478.352C998.025 478.875 998.174 479.477 998.174 480.16C998.174 480.949 997.977 481.733 997.582 482.512C997.187 483.28 996.681 483.979 996.062 484.608C995.443 485.237 994.793 485.765 994.11 486.192H998.638ZM1004.65 488.16C1003.12 488.16 1002.09 487.605 1001.57 486.496C1001.04 485.376 1000.78 484.021 1000.78 482.432C1000.78 480.821 1001.03 479.461 1001.53 478.352C1002.05 477.232 1003.05 476.672 1004.54 476.672C1005.95 476.672 1006.94 477.227 1007.52 478.336C1008.1 479.435 1008.4 480.805 1008.4 482.448C1008.4 484.08 1008.11 485.44 1007.55 486.528C1006.98 487.616 1006.02 488.16 1004.65 488.16ZM1004.61 486.32C1005.13 486.32 1005.51 486.133 1005.76 485.76C1006.01 485.387 1006.17 484.939 1006.24 484.416C1006.3 483.883 1006.33 483.216 1006.33 482.416C1006.33 481.595 1006.3 480.923 1006.24 480.4C1006.17 479.867 1006.01 479.419 1005.74 479.056C1005.49 478.693 1005.09 478.512 1004.54 478.512C1004 478.512 1003.59 478.693 1003.33 479.056C1003.07 479.419 1002.91 479.867 1002.85 480.4C1002.78 480.933 1002.75 481.611 1002.75 482.432C1002.75 483.232 1002.78 483.899 1002.85 484.432C1002.92 484.955 1003.09 485.403 1003.36 485.776C1003.62 486.139 1004.04 486.32 1004.61 486.32ZM1018.35 486.192V488H1010.54V486.416C1012 485.52 1013.27 484.565 1014.35 483.552C1015.43 482.528 1015.96 481.445 1015.96 480.304C1015.96 479.781 1015.83 479.36 1015.55 479.04C1015.28 478.72 1014.88 478.56 1014.35 478.56C1013.7 478.56 1013.22 478.784 1012.92 479.232C1012.64 479.68 1012.48 480.24 1012.44 480.912L1010.56 480.768C1010.56 480.064 1010.71 479.403 1011 478.784C1011.3 478.165 1011.74 477.664 1012.32 477.28C1012.9 476.896 1013.59 476.704 1014.38 476.704C1015.06 476.704 1015.67 476.848 1016.19 477.136C1016.72 477.424 1017.14 477.829 1017.44 478.352C1017.73 478.875 1017.88 479.477 1017.88 480.16C1017.88 480.949 1017.69 481.733 1017.29 482.512C1016.9 483.28 1016.39 483.979 1015.77 484.608C1015.15 485.237 1014.5 485.765 1013.82 486.192H1018.35ZM1024.36 488.16C1022.83 488.16 1021.8 487.605 1021.28 486.496C1020.75 485.376 1020.49 484.021 1020.49 482.432C1020.49 480.821 1020.74 479.461 1021.24 478.352C1021.76 477.232 1022.76 476.672 1024.25 476.672C1025.66 476.672 1026.65 477.227 1027.23 478.336C1027.81 479.435 1028.11 480.805 1028.11 482.448C1028.11 484.08 1027.82 485.44 1027.26 486.528C1026.69 487.616 1025.73 488.16 1024.36 488.16ZM1024.32 486.32C1024.84 486.32 1025.22 486.133 1025.47 485.76C1025.72 485.387 1025.88 484.939 1025.95 484.416C1026.01 483.883 1026.04 483.216 1026.04 482.416C1026.04 481.595 1026.01 480.923 1025.95 480.4C1025.88 479.867 1025.72 479.419 1025.45 479.056C1025.2 478.693 1024.8 478.512 1024.25 478.512C1023.71 478.512 1023.3 478.693 1023.04 479.056C1022.78 479.419 1022.62 479.867 1022.56 480.4C1022.49 480.933 1022.46 481.611 1022.46 482.432C1022.46 483.232 1022.49 483.899 1022.56 484.432C1022.63 484.955 1022.8 485.403 1023.07 485.776C1023.33 486.139 1023.75 486.32 1024.32 486.32Z" fill="#8B8687"/>
<path d="M1131.59 456.848V468H1129.59V459.664L1126.82 467.024H1124.89L1122.12 459.664V468H1120.12V456.848H1122.98L1125.85 464.704L1128.73 456.848H1131.59ZM1137.62 459.952C1138.66 459.952 1139.48 460.229 1140.08 460.784C1140.69 461.328 1140.99 462.075 1140.99 463.024V468H1139.23L1139.07 466.976C1138.84 467.349 1138.51 467.643 1138.08 467.856C1137.66 468.059 1137.19 468.16 1136.67 468.16C1136.13 468.16 1135.64 468.053 1135.2 467.84C1134.77 467.616 1134.44 467.307 1134.19 466.912C1133.95 466.517 1133.82 466.075 1133.82 465.584C1133.82 465.115 1133.93 464.709 1134.13 464.368C1134.33 464.027 1134.62 463.771 1135.01 463.6C1135.52 463.365 1136.22 463.248 1137.1 463.248H1139.07V463.024C1139.07 462.597 1138.94 462.261 1138.67 462.016C1138.41 461.76 1138.04 461.632 1137.58 461.632C1137.18 461.632 1136.79 461.733 1136.43 461.936C1136.07 462.139 1135.74 462.432 1135.46 462.816L1134.06 461.648C1135 460.517 1136.19 459.952 1137.62 459.952ZM1136.98 466.528C1137.55 466.528 1138.04 466.352 1138.45 466C1138.86 465.637 1139.07 465.2 1139.07 464.688H1137.36C1136.74 464.688 1136.31 464.779 1136.06 464.96C1135.85 465.109 1135.74 465.328 1135.74 465.616C1135.74 465.893 1135.85 466.117 1136.06 466.288C1136.29 466.448 1136.59 466.528 1136.98 466.528ZM1147.54 459.952C1148.06 459.952 1148.56 460.101 1149.04 460.4L1148.12 462.096C1147.84 461.915 1147.52 461.824 1147.16 461.824C1145.99 461.824 1145.41 462.56 1145.41 464.032V468H1143.49V460.112H1145.43V461.456C1145.59 460.987 1145.86 460.619 1146.24 460.352C1146.64 460.085 1147.07 459.952 1147.54 459.952ZM1152.72 468.16C1151.92 468.16 1151.21 467.952 1150.61 467.536C1150.01 467.109 1149.61 466.581 1149.41 465.952L1150.94 465.264C1151.25 466.128 1151.81 466.56 1152.62 466.56C1153.04 466.56 1153.35 466.464 1153.57 466.272C1153.79 466.08 1153.9 465.867 1153.9 465.632C1153.9 465.397 1153.79 465.221 1153.57 465.104C1153.34 464.987 1152.97 464.853 1152.46 464.704C1151.93 464.565 1151.49 464.421 1151.13 464.272C1150.78 464.112 1150.48 463.872 1150.22 463.552C1149.97 463.221 1149.84 462.789 1149.84 462.256C1149.84 461.531 1150.12 460.965 1150.67 460.56C1151.24 460.155 1151.92 459.952 1152.73 459.952C1153.41 459.952 1154 460.101 1154.51 460.4C1155.02 460.699 1155.43 461.12 1155.73 461.664L1154.24 462.48C1154.08 462.181 1153.88 461.941 1153.63 461.76C1153.39 461.568 1153.07 461.472 1152.67 461.472C1152.37 461.472 1152.13 461.536 1151.93 461.664C1151.75 461.792 1151.66 461.952 1151.66 462.144C1151.66 462.357 1151.77 462.523 1152 462.64C1152.23 462.757 1152.59 462.88 1153.07 463.008C1153.63 463.168 1154.08 463.328 1154.45 463.488C1154.81 463.648 1155.12 463.893 1155.39 464.224C1155.66 464.555 1155.79 464.987 1155.79 465.52C1155.79 466.107 1155.64 466.597 1155.34 466.992C1155.05 467.387 1154.68 467.68 1154.21 467.872C1153.74 468.064 1153.24 468.16 1152.72 468.16ZM1126.64 486.192V488H1118.83V486.416C1120.29 485.52 1121.56 484.565 1122.64 483.552C1123.72 482.528 1124.25 481.445 1124.25 480.304C1124.25 479.781 1124.12 479.36 1123.84 479.04C1123.57 478.72 1123.17 478.56 1122.64 478.56C1121.99 478.56 1121.51 478.784 1121.21 479.232C1120.93 479.68 1120.77 480.24 1120.73 480.912L1118.85 480.768C1118.85 480.064 1119 479.403 1119.29 478.784C1119.59 478.165 1120.03 477.664 1120.61 477.28C1121.19 476.896 1121.88 476.704 1122.67 476.704C1123.35 476.704 1123.96 476.848 1124.48 477.136C1125.01 477.424 1125.43 477.829 1125.73 478.352C1126.02 478.875 1126.17 479.477 1126.17 480.16C1126.17 480.949 1125.98 481.733 1125.58 482.512C1125.19 483.28 1124.68 483.979 1124.06 484.608C1123.44 485.237 1122.79 485.765 1122.11 486.192H1126.64ZM1132.65 488.16C1131.12 488.16 1130.09 487.605 1129.57 486.496C1129.04 485.376 1128.78 484.021 1128.78 482.432C1128.78 480.821 1129.03 479.461 1129.53 478.352C1130.05 477.232 1131.05 476.672 1132.54 476.672C1133.95 476.672 1134.94 477.227 1135.52 478.336C1136.1 479.435 1136.4 480.805 1136.4 482.448C1136.4 484.08 1136.11 485.44 1135.55 486.528C1134.98 487.616 1134.02 488.16 1132.65 488.16ZM1132.61 486.32C1133.13 486.32 1133.51 486.133 1133.76 485.76C1134.01 485.387 1134.17 484.939 1134.24 484.416C1134.3 483.883 1134.33 483.216 1134.33 482.416C1134.33 481.595 1134.3 480.923 1134.24 480.4C1134.17 479.867 1134.01 479.419 1133.74 479.056C1133.49 478.693 1133.09 478.512 1132.54 478.512C1132 478.512 1131.59 478.693 1131.33 479.056C1131.07 479.419 1130.91 479.867 1130.85 480.4C1130.78 480.933 1130.75 481.611 1130.75 482.432C1130.75 483.232 1130.78 483.899 1130.85 484.432C1130.92 484.955 1131.09 485.403 1131.36 485.776C1131.62 486.139 1132.04 486.32 1132.61 486.32ZM1146.35 486.192V488H1138.54V486.416C1140 485.52 1141.27 484.565 1142.35 483.552C1143.43 482.528 1143.96 481.445 1143.96 480.304C1143.96 479.781 1143.83 479.36 1143.55 479.04C1143.28 478.72 1142.88 478.56 1142.35 478.56C1141.7 478.56 1141.22 478.784 1140.92 479.232C1140.64 479.68 1140.48 480.24 1140.44 480.912L1138.56 480.768C1138.56 480.064 1138.71 479.403 1139 478.784C1139.3 478.165 1139.74 477.664 1140.32 477.28C1140.9 476.896 1141.59 476.704 1142.38 476.704C1143.06 476.704 1143.67 476.848 1144.19 477.136C1144.72 477.424 1145.14 477.829 1145.44 478.352C1145.73 478.875 1145.88 479.477 1145.88 480.16C1145.88 480.949 1145.69 481.733 1145.29 482.512C1144.9 483.28 1144.39 483.979 1143.77 484.608C1143.15 485.237 1142.5 485.765 1141.82 486.192H1146.35ZM1152.36 488.16C1150.83 488.16 1149.8 487.605 1149.28 486.496C1148.75 485.376 1148.49 484.021 1148.49 482.432C1148.49 480.821 1148.74 479.461 1149.24 478.352C1149.76 477.232 1150.76 476.672 1152.25 476.672C1153.66 476.672 1154.65 477.227 1155.23 478.336C1155.81 479.435 1156.11 480.805 1156.11 482.448C1156.11 484.08 1155.82 485.44 1155.26 486.528C1154.69 487.616 1153.73 488.16 1152.36 488.16ZM1152.32 486.32C1152.84 486.32 1153.22 486.133 1153.47 485.76C1153.72 485.387 1153.88 484.939 1153.95 484.416C1154.01 483.883 1154.04 483.216 1154.04 482.416C1154.04 481.595 1154.01 480.923 1153.95 480.4C1153.88 479.867 1153.72 479.419 1153.45 479.056C1153.2 478.693 1152.8 478.512 1152.25 478.512C1151.71 478.512 1151.3 478.693 1151.04 479.056C1150.78 479.419 1150.62 479.867 1150.56 480.4C1150.49 480.933 1150.46 481.611 1150.46 482.432C1150.46 483.232 1150.49 483.899 1150.56 484.432C1150.63 484.955 1150.8 485.403 1151.07 485.776C1151.33 486.139 1151.75 486.32 1152.32 486.32Z" fill="#8B8687"/>
<g clip-path="url(#clip0)">
<g clip-path="url(#clip1)">
<line x1="999.726" y1="-230.454" x2="514.842" y2="254.43" stroke="#D4D2EB" stroke-width="1.65236"/>
<line x1="1004.4" y1="-225.781" x2="519.516" y2="259.103" stroke="#D4D2EB" stroke-width="1.65236"/>
<line x1="1009.07" y1="-221.106" x2="524.189" y2="263.777" stroke="#D4D2EB" stroke-width="1.65236"/>
<line x1="1013.75" y1="-216.433" x2="528.864" y2="268.45" stroke="#D4D2EB" stroke-width="1.65236"/>
<line x1="1018.42" y1="-211.761" x2="533.536" y2="273.123" stroke="#D4D2EB" stroke-width="1.65236"/>
<line x1="1023.09" y1="-207.086" x2="538.209" y2="277.798" stroke="#D4D2EB" stroke-width="1.65236"/>
<line x1="1030.1" y1="-204.749" x2="542.884" y2="282.472" stroke="#D4D2EB" stroke-width="1.65236"/>
<line x1="1032.44" y1="-197.739" x2="547.557" y2="287.145" stroke="#D4D2EB" stroke-width="1.65236"/>
<line x1="1038.28" y1="-194.233" x2="552.23" y2="291.819" stroke="#D4D2EB" stroke-width="1.65236"/>
<line x1="1041.79" y1="-188.391" x2="556.905" y2="296.492" stroke="#D4D2EB" stroke-width="1.65236"/>
<line x1="1048.8" y1="-186.055" x2="561.578" y2="301.165" stroke="#D4D2EB" stroke-width="1.65236"/>
<line x1="1053.47" y1="-181.382" x2="566.252" y2="305.839" stroke="#D4D2EB" stroke-width="1.65236"/>
<line x1="1055.81" y1="-174.371" x2="570.926" y2="310.513" stroke="#D4D2EB" stroke-width="1.65236"/>
<line x1="1061.65" y1="-170.866" x2="575.599" y2="315.186" stroke="#D4D2EB" stroke-width="1.65236"/>
<line x1="1065.16" y1="-165.025" x2="580.272" y2="319.858" stroke="#D4D2EB" stroke-width="1.65236"/>
<line x1="1072.17" y1="-162.686" x2="584.947" y2="324.534" stroke="#D4D2EB" stroke-width="1.65236"/>
<line x1="1076.84" y1="-158.013" x2="589.62" y2="329.207" stroke="#D4D2EB" stroke-width="1.65236"/>
<line x1="1079.18" y1="-151.004" x2="594.293" y2="333.88" stroke="#D4D2EB" stroke-width="1.65236"/>
<line x1="1085.02" y1="-147.498" x2="598.966" y2="338.554" stroke="#D4D2EB" stroke-width="1.65236"/>
<line x1="1088.52" y1="-141.656" x2="603.641" y2="343.228" stroke="#D4D2EB" stroke-width="1.65236"/>
<line x1="1095.53" y1="-139.319" x2="608.314" y2="347.901" stroke="#D4D2EB" stroke-width="1.65236"/>
<line x1="1100.21" y1="-134.646" x2="612.987" y2="352.574" stroke="#D4D2EB" stroke-width="1.65236"/>
<line x1="1104.88" y1="-129.971" x2="617.662" y2="357.249" stroke="#D4D2EB" stroke-width="1.65236"/>
<line x1="1108.39" y1="-124.131" x2="622.335" y2="361.921" stroke="#D4D2EB" stroke-width="1.65236"/>
<line x1="1111.89" y1="-118.288" x2="627.008" y2="366.596" stroke="#D4D2EB" stroke-width="1.65236"/>
<line x1="1118.9" y1="-115.951" x2="631.682" y2="371.269" stroke="#D4D2EB" stroke-width="1.65236"/>
<line x1="1123.58" y1="-111.278" x2="636.355" y2="375.942" stroke="#D4D2EB" stroke-width="1.65236"/>
<line x1="1128.25" y1="-106.605" x2="641.028" y2="380.615" stroke="#D4D2EB" stroke-width="1.65236"/>
<line x1="1131.76" y1="-100.762" x2="645.703" y2="385.29" stroke="#D4D2EB" stroke-width="1.65236"/>
<line x1="1135.26" y1="-94.9207" x2="650.376" y2="389.963" stroke="#D4D2EB" stroke-width="1.65236"/>
<line x1="1142.27" y1="-92.5838" x2="655.049" y2="394.637" stroke="#D4D2EB" stroke-width="1.65236"/>
<line x1="1144.61" y1="-85.573" x2="659.722" y2="399.311" stroke="#D4D2EB" stroke-width="1.65236"/>
<line x1="1151.62" y1="-83.2361" x2="664.397" y2="403.984" stroke="#D4D2EB" stroke-width="1.65236"/>
<line x1="1155.12" y1="-77.3953" x2="669.07" y2="408.657" stroke="#D4D2EB" stroke-width="1.65236"/>
<line x1="1158.63" y1="-71.5515" x2="673.744" y2="413.332" stroke="#D4D2EB" stroke-width="1.65236"/>
<line x1="1165.64" y1="-69.2156" x2="678.418" y2="418.005" stroke="#D4D2EB" stroke-width="1.65236"/>
<line x1="1167.97" y1="-62.2058" x2="683.091" y2="422.678" stroke="#D4D2EB" stroke-width="1.65236"/>
<line x1="1174.98" y1="-59.8689" x2="687.764" y2="427.351" stroke="#D4D2EB" stroke-width="1.65236"/>
<line x1="1178.49" y1="-54.0262" x2="692.438" y2="432.026" stroke="#D4D2EB" stroke-width="1.65236"/>
<line x1="1182" y1="-48.1853" x2="697.112" y2="436.698" stroke="#D4D2EB" stroke-width="1.65236"/>
<line x1="1189.01" y1="-45.8484" x2="701.785" y2="441.372" stroke="#D4D2EB" stroke-width="1.65236"/>
<line x1="1191.34" y1="-38.8367" x2="706.459" y2="446.047" stroke="#D4D2EB" stroke-width="1.65236"/>
<line x1="1198.35" y1="-36.5008" x2="711.132" y2="450.72" stroke="#D4D2EB" stroke-width="1.65236"/>
<line x1="1201.86" y1="-30.659" x2="715.806" y2="455.393" stroke="#D4D2EB" stroke-width="1.65236"/>
<line x1="1205.36" y1="-24.8162" x2="720.479" y2="460.067" stroke="#D4D2EB" stroke-width="1.65236"/>
<line x1="1212.37" y1="-22.4793" x2="725.154" y2="464.741" stroke="#D4D2EB" stroke-width="1.65236"/>
<line x1="1214.71" y1="-15.4705" x2="729.827" y2="469.413" stroke="#D4D2EB" stroke-width="1.65236"/>
<line x1="1219.38" y1="-10.7957" x2="734.499" y2="474.088" stroke="#D4D2EB" stroke-width="1.65236"/>
<line x1="1224.06" y1="-6.12186" x2="739.174" y2="478.762" stroke="#D4D2EB" stroke-width="1.65236"/>
<line x1="1228.73" y1="-1.44901" x2="743.848" y2="483.435" stroke="#D4D2EB" stroke-width="1.65236"/>
<line x1="1233.4" y1="3.2258" x2="748.521" y2="488.109" stroke="#D4D2EB" stroke-width="1.65236"/>
<line x1="1238.08" y1="7.89865" x2="753.196" y2="492.782" stroke="#D4D2EB" stroke-width="1.65236"/>
<line x1="1242.75" y1="12.5715" x2="757.869" y2="497.455" stroke="#D4D2EB" stroke-width="1.65236"/>
<line x1="1247.43" y1="17.2463" x2="762.541" y2="502.13" stroke="#D4D2EB" stroke-width="1.65236"/>
<line x1="1252.1" y1="21.9192" x2="767.216" y2="506.803" stroke="#D4D2EB" stroke-width="1.65236"/>
<line x1="1256.77" y1="26.592" x2="771.889" y2="511.476" stroke="#D4D2EB" stroke-width="1.65236"/>
<line x1="1261.45" y1="31.2658" x2="776.562" y2="516.149" stroke="#D4D2EB" stroke-width="1.65236"/>
<line x1="1266.12" y1="35.9406" x2="781.236" y2="520.824" stroke="#D4D2EB" stroke-width="1.65236"/>
<line x1="1270.79" y1="40.6135" x2="785.911" y2="525.497" stroke="#D4D2EB" stroke-width="1.65236"/>
<line x1="1275.47" y1="45.2863" x2="790.583" y2="530.17" stroke="#D4D2EB" stroke-width="1.65236"/>
<line x1="1280.14" y1="49.9612" x2="795.256" y2="534.845" stroke="#D4D2EB" stroke-width="1.65236"/>
<line x1="1284.81" y1="54.634" x2="799.931" y2="539.518" stroke="#D4D2EB" stroke-width="1.65236"/>
<line x1="1289.49" y1="59.3069" x2="804.604" y2="544.19" stroke="#D4D2EB" stroke-width="1.65236"/>
<line x1="1294.16" y1="63.9817" x2="809.277" y2="548.865" stroke="#D4D2EB" stroke-width="1.65236"/>
<line x1="1298.84" y1="68.6555" x2="813.952" y2="553.539" stroke="#D4D2EB" stroke-width="1.65236"/>
<line x1="1303.51" y1="73.3283" x2="818.625" y2="558.212" stroke="#D4D2EB" stroke-width="1.65236"/>
<line x1="1308.18" y1="78.0031" x2="823.298" y2="562.887" stroke="#D4D2EB" stroke-width="1.65236"/>
<line x1="1312.86" y1="82.676" x2="827.973" y2="567.56" stroke="#D4D2EB" stroke-width="1.65236"/>
<line x1="1317.53" y1="87.3488" x2="832.646" y2="572.232" stroke="#D4D2EB" stroke-width="1.65236"/>
<line x1="1322.2" y1="92.0217" x2="837.319" y2="576.905" stroke="#D4D2EB" stroke-width="1.65236"/>
<line x1="1326.88" y1="96.6965" x2="841.992" y2="581.58" stroke="#D4D2EB" stroke-width="1.65236"/>
<line x1="1331.55" y1="101.369" x2="846.666" y2="586.253" stroke="#D4D2EB" stroke-width="1.65236"/>
<line x1="1336.22" y1="106.043" x2="851.339" y2="590.927" stroke="#D4D2EB" stroke-width="1.65236"/>
<line x1="1340.9" y1="110.718" x2="856.013" y2="595.602" stroke="#D4D2EB" stroke-width="1.65236"/>
<line x1="1345.57" y1="115.391" x2="860.688" y2="600.274" stroke="#D4D2EB" stroke-width="1.65236"/>
<line x1="1350.24" y1="120.064" x2="865.361" y2="604.947" stroke="#D4D2EB" stroke-width="1.65236"/>
<line x1="1354.92" y1="124.738" x2="870.034" y2="609.622" stroke="#D4D2EB" stroke-width="1.65236"/>
<line x1="1359.59" y1="129.411" x2="874.708" y2="614.295" stroke="#D4D2EB" stroke-width="1.65236"/>
<line x1="1364.26" y1="134.084" x2="879.381" y2="618.968" stroke="#D4D2EB" stroke-width="1.65236"/>
<line x1="1368.94" y1="138.759" x2="884.054" y2="623.643" stroke="#D4D2EB" stroke-width="1.65236"/>
<line x1="1373.61" y1="143.432" x2="888.729" y2="628.315" stroke="#D4D2EB" stroke-width="1.65236"/>
<line x1="1378.29" y1="148.106" x2="893.402" y2="632.989" stroke="#D4D2EB" stroke-width="1.65236"/>
<line x1="1382.96" y1="152.78" x2="898.076" y2="637.664" stroke="#D4D2EB" stroke-width="1.65236"/>
<line x1="1387.63" y1="157.453" x2="902.75" y2="642.337" stroke="#D4D2EB" stroke-width="1.65236"/>
<line x1="1392.31" y1="162.126" x2="907.423" y2="647.01" stroke="#D4D2EB" stroke-width="1.65236"/>
<line x1="1396.98" y1="166.799" x2="912.096" y2="651.683" stroke="#D4D2EB" stroke-width="1.65236"/>
<line x1="1401.65" y1="171.474" x2="916.769" y2="656.357" stroke="#D4D2EB" stroke-width="1.65236"/>
<line x1="1406.33" y1="176.147" x2="921.444" y2="661.03" stroke="#D4D2EB" stroke-width="1.65236"/>
<line x1="1411" y1="180.821" x2="926.117" y2="665.704" stroke="#D4D2EB" stroke-width="1.65236"/>
<line x1="1415.67" y1="185.495" x2="930.79" y2="670.379" stroke="#D4D2EB" stroke-width="1.65236"/>
<line x1="1420.35" y1="190.168" x2="935.465" y2="675.052" stroke="#D4D2EB" stroke-width="1.65236"/>
</g>
</g>
<path d="M70 174C97.5 111 256 58.5001 391 163.5C526 268.5 630 182.5 704.5 244.5C779 306.5 918.596 366.122 1008.5 212C1050.5 140 1102.5 85 1173.5 77" stroke="#A28AF0" stroke-width="6"/>
<path d="M70 247C153 226 197 180 347.5 238C498 296 610 256 718.5 213C827 170 1019 196 1092.5 160.5C1151.3 132.1 1170.67 127.666 1173 129" stroke="#FDC096" stroke-width="6"/>
<path d="M67.5 373.5C114 345.833 233.6 298.8 340 332C473 373.5 545 389 586 373.5C627 358 818.5 393.5 892.5 366C966.5 338.5 1117.5 297.5 1182.5 301.5" stroke="#72DCB9" stroke-width="6"/>
<defs>
<clipPath id="clip0">
<rect width="379" height="406" fill="white" transform="translate(794 10)"/>
</clipPath>
<clipPath id="clip1">
<rect width="570.064" height="570.064" fill="white" transform="translate(983.952 -190.145) rotate(45)"/>
</clipPath>
</defs>
</svg>
