<svg width="158" height="57" viewBox="0 0 158 57" fill="none" xmlns="http://www.w3.org/2000/svg">
<g filter="url(#filter0_d)">
<path d="M24.5 3.41016L44.8516 15.1602V38.6602L24.5 50.4102L4.1484 38.6602V15.1602L24.5 3.41016Z" fill="#2F2D52"/>
</g>
<g filter="url(#filter1_d)">
<path fill-rule="evenodd" clip-rule="evenodd" d="M16.9803 18.9199H7.58029V26.8652C7.58015 26.8802 7.58008 26.8951 7.58008 26.9101C7.58008 26.925 7.58015 26.94 7.58029 26.9549V27.3799H7.60327C7.83901 29.7551 9.84292 31.6101 12.2801 31.6101C14.7172 31.6101 16.7211 29.7551 16.9569 27.3799H16.9803V18.9199Z" fill="#96DEC6"/>
</g>
<g filter="url(#filter2_d)">
<path fill-rule="evenodd" clip-rule="evenodd" d="M29.1997 14.2207H19.7997V26.8195C19.7991 26.8496 19.7988 26.8798 19.7988 26.9101C19.7988 26.9403 19.7991 26.9705 19.7997 27.0006V27.3807H19.8221C20.0582 29.7555 22.0619 31.6101 24.4988 31.6101C26.9357 31.6101 28.9395 29.7555 29.1756 27.3807H29.1997V14.2207Z" fill="#FDC096"/>
</g>
<g filter="url(#filter3_d)">
<path fill-rule="evenodd" clip-rule="evenodd" d="M41.4195 2H32.0195V26.91H32.0201C32.0201 26.91 32.0201 26.91 32.0201 26.9101C32.0201 29.5058 34.1243 31.6101 36.7201 31.6101C39.3158 31.6101 41.4201 29.5058 41.4201 26.9101C41.4201 26.886 41.4199 26.862 41.4195 26.838V2Z" fill="#A28AF0"/>
</g>
<path d="M65.92 35.3398H70.84C76.528 35.3398 79.624 32.4358 79.624 27.1078C79.624 21.6838 76.432 18.6118 70.864 18.6118H65.92V35.3398ZM69.304 32.2198V21.7078H70.792C74.344 21.7078 76.216 23.0998 76.216 26.9638C76.216 30.9478 74.32 32.2198 70.504 32.2198H69.304ZM87.2485 23.2438C85.1365 23.2438 83.1685 24.0118 81.7285 25.6438L84.0805 27.6118C85.0405 26.5318 86.0485 26.0758 87.1045 26.0758C88.4485 26.0758 89.2405 26.7718 89.2405 27.8518V28.1158H86.1205C84.9205 28.1158 83.9605 28.2838 83.1925 28.6678C82.1125 29.2198 81.4885 30.2278 81.4885 31.6198C81.4885 33.9478 83.3365 35.6038 85.9045 35.6038C87.1045 35.6038 88.4245 35.1718 89.2645 33.9718L89.5045 35.3398H92.4805V27.8518C92.4805 25.0198 90.4885 23.2438 87.2485 23.2438ZM86.4325 32.9158C85.3285 32.9158 84.7285 32.3878 84.7285 31.6678C84.7285 31.3078 84.8725 31.0198 85.1605 30.8278C85.4485 30.6118 85.9045 30.5158 86.5765 30.5158H89.2405C89.2165 31.8838 87.9445 32.9158 86.4325 32.9158ZM102.547 26.0518V23.5078H99.571V19.0918L96.331 21.4918V23.5078H94.411V26.0518H96.331V31.7878C96.331 34.5718 98.155 35.6038 100.267 35.6038C101.059 35.6038 101.803 35.4838 102.547 35.2198V32.6518C102.019 32.8198 101.515 32.9158 101.059 32.9158C99.859 32.9158 99.571 32.2198 99.571 31.5238V26.0518H102.547ZM110.321 23.2438C108.209 23.2438 106.241 24.0118 104.801 25.6438L107.153 27.6118C108.113 26.5318 109.121 26.0758 110.177 26.0758C111.521 26.0758 112.313 26.7718 112.313 27.8518V28.1158H109.193C107.993 28.1158 107.033 28.2838 106.265 28.6678C105.185 29.2198 104.561 30.2278 104.561 31.6198C104.561 33.9478 106.409 35.6038 108.977 35.6038C110.177 35.6038 111.497 35.1718 112.337 33.9718L112.577 35.3398H115.553V27.8518C115.553 25.0198 113.561 23.2438 110.321 23.2438ZM109.505 32.9158C108.401 32.9158 107.801 32.3878 107.801 31.6678C107.801 31.3078 107.945 31.0198 108.233 30.8278C108.521 30.6118 108.977 30.5158 109.649 30.5158H112.313C112.289 31.8838 111.017 32.9158 109.505 32.9158ZM136.35 35.3398H140.022L133.23 18.6118H130.71L123.87 35.3398H127.566L128.742 32.1958H135.174L136.35 35.3398ZM129.918 29.0758L131.982 23.6278L134.022 29.0758H129.918ZM142.089 21.5638H145.449V18.6118H142.089V21.5638ZM142.137 35.3398H145.401V23.5078H142.137V35.3398ZM155.498 23.2438C154.202 23.2438 152.954 24.0358 152.426 25.3798V23.5078H149.138V35.3398H152.402V29.6038C152.402 27.4438 153.242 26.4598 154.754 26.4598C155.33 26.4598 155.882 26.6278 156.242 26.8678L157.802 23.9638C157.01 23.4598 156.29 23.2438 155.498 23.2438Z" fill="black"/>
<defs>
<filter id="filter0_d" x="0.388438" y="1.53016" width="48.2232" height="54.52" filterUnits="userSpaceOnUse" color-interpolation-filters="sRGB">
<feFlood flood-opacity="0" result="BackgroundImageFix"/>
<feColorMatrix in="SourceAlpha" type="matrix" values="0 0 0 0 0 0 0 0 0 0 0 0 0 0 0 0 0 0 127 0"/>
<feOffset dy="1.88"/>
<feGaussianBlur stdDeviation="1.88"/>
<feColorMatrix type="matrix" values="0 0 0 0 0 0 0 0 0 0 0 0 0 0 0 0 0 0 0.08 0"/>
<feBlend mode="normal" in2="BackgroundImageFix" result="effect1_dropShadow"/>
<feBlend mode="normal" in="SourceGraphic" in2="effect1_dropShadow" result="shape"/>
</filter>
<filter id="filter1_d" x="3.82008" y="17.0399" width="16.9202" height="20.2101" filterUnits="userSpaceOnUse" color-interpolation-filters="sRGB">
<feFlood flood-opacity="0" result="BackgroundImageFix"/>
<feColorMatrix in="SourceAlpha" type="matrix" values="0 0 0 0 0 0 0 0 0 0 0 0 0 0 0 0 0 0 127 0"/>
<feOffset dy="1.88"/>
<feGaussianBlur stdDeviation="1.88"/>
<feColorMatrix type="matrix" values="0 0 0 0 0 0 0 0 0 0 0 0 0 0 0 0 0 0 0.08 0"/>
<feBlend mode="normal" in2="BackgroundImageFix" result="effect1_dropShadow"/>
<feBlend mode="normal" in="SourceGraphic" in2="effect1_dropShadow" result="shape"/>
</filter>
<filter id="filter2_d" x="16.0388" y="12.3407" width="16.9209" height="24.9094" filterUnits="userSpaceOnUse" color-interpolation-filters="sRGB">
<feFlood flood-opacity="0" result="BackgroundImageFix"/>
<feColorMatrix in="SourceAlpha" type="matrix" values="0 0 0 0 0 0 0 0 0 0 0 0 0 0 0 0 0 0 127 0"/>
<feOffset dy="1.88"/>
<feGaussianBlur stdDeviation="1.88"/>
<feColorMatrix type="matrix" values="0 0 0 0 0 0 0 0 0 0 0 0 0 0 0 0 0 0 0.08 0"/>
<feBlend mode="normal" in2="BackgroundImageFix" result="effect1_dropShadow"/>
<feBlend mode="normal" in="SourceGraphic" in2="effect1_dropShadow" result="shape"/>
</filter>
<filter id="filter3_d" x="28.2595" y="0.12" width="16.9205" height="37.1301" filterUnits="userSpaceOnUse" color-interpolation-filters="sRGB">
<feFlood flood-opacity="0" result="BackgroundImageFix"/>
<feColorMatrix in="SourceAlpha" type="matrix" values="0 0 0 0 0 0 0 0 0 0 0 0 0 0 0 0 0 0 127 0"/>
<feOffset dy="1.88"/>
<feGaussianBlur stdDeviation="1.88"/>
<feColorMatrix type="matrix" values="0 0 0 0 0 0 0 0 0 0 0 0 0 0 0 0 0 0 0.08 0"/>
<feBlend mode="normal" in2="BackgroundImageFix" result="effect1_dropShadow"/>
<feBlend mode="normal" in="SourceGraphic" in2="effect1_dropShadow" result="shape"/>
</filter>
</defs>
</svg>
