<svg width="174" height="57" viewBox="0 0 174 57" fill="none" xmlns="http://www.w3.org/2000/svg">
<g filter="url(#filter0_d)">
<path d="M24.5 3.41016L44.8516 15.1602V38.6602L24.5 50.4102L4.1484 38.6602V15.1602L24.5 3.41016Z" fill="#2F2D52"/>
</g>
<g filter="url(#filter1_d)">
<path fill-rule="evenodd" clip-rule="evenodd" d="M16.9803 18.9199H7.58029V26.8652C7.58015 26.8802 7.58008 26.8951 7.58008 26.9101C7.58008 26.925 7.58015 26.94 7.58029 26.9549V27.3799H7.60327C7.83901 29.7551 9.84292 31.6101 12.2801 31.6101C14.7172 31.6101 16.7211 29.7551 16.9569 27.3799H16.9803V18.9199Z" fill="#96DEC6"/>
</g>
<g filter="url(#filter2_d)">
<path fill-rule="evenodd" clip-rule="evenodd" d="M29.1997 14.2207H19.7997V26.8195C19.7991 26.8496 19.7988 26.8798 19.7988 26.9101C19.7988 26.9403 19.7991 26.9705 19.7997 27.0006V27.3807H19.8221C20.0582 29.7555 22.0619 31.6101 24.4988 31.6101C26.9357 31.6101 28.9395 29.7555 29.1756 27.3807H29.1997V14.2207Z" fill="#FDC096"/>
</g>
<g filter="url(#filter3_d)">
<path fill-rule="evenodd" clip-rule="evenodd" d="M41.4195 2H32.0195V26.91H32.0201C32.0201 26.91 32.0201 26.91 32.0201 26.9101C32.0201 29.5058 34.1243 31.6101 36.7201 31.6101C39.3158 31.6101 41.4201 29.5058 41.4201 26.9101C41.4201 26.886 41.4199 26.862 41.4195 26.838V2Z" fill="#A28AF0"/>
</g>
<path d="M73 35.7478C71.352 35.7478 69.904 35.3878 68.656 34.6678C67.408 33.9478 66.44 32.9238 65.752 31.5958C65.08 30.2678 64.744 28.7238 64.744 26.9638C64.744 25.2038 65.08 23.6598 65.752 22.3318C66.44 21.0038 67.4 19.9798 68.632 19.2598C69.88 18.5398 71.328 18.1798 72.976 18.1798C74.784 18.1798 76.344 18.6118 77.656 19.4758C78.968 20.3398 79.928 21.5718 80.536 23.1718L77.416 24.3958C77.064 23.4038 76.504 22.6598 75.736 22.1638C74.984 21.6518 74.064 21.3958 72.976 21.3958C71.44 21.3958 70.248 21.8758 69.4 22.8358C68.552 23.7958 68.128 25.1638 68.128 26.9398C68.128 28.6998 68.552 30.0678 69.4 31.0438C70.264 32.0198 71.464 32.5078 73 32.5078C74.12 32.5078 75.056 32.2518 75.808 31.7398C76.56 31.2118 77.096 30.4438 77.416 29.4358L80.584 30.6358C79.992 32.2678 79.032 33.5318 77.704 34.4278C76.392 35.3078 74.824 35.7478 73 35.7478ZM87.676 35.6038C86.476 35.6038 85.42 35.3238 84.508 34.7638C83.596 34.1878 82.892 33.4278 82.396 32.4838C81.916 31.5398 81.676 30.5158 81.676 29.4118C81.676 28.2918 81.916 27.2678 82.396 26.3398C82.876 25.3958 83.572 24.6438 84.484 24.0838C85.396 23.5238 86.46 23.2438 87.676 23.2438C88.892 23.2438 89.948 23.5238 90.844 24.0838C91.756 24.6438 92.452 25.3958 92.932 26.3398C93.428 27.2678 93.676 28.2918 93.676 29.4118C93.676 30.5158 93.428 31.5398 92.932 32.4838C92.452 33.4278 91.756 34.1878 90.844 34.7638C89.932 35.3238 88.876 35.6038 87.676 35.6038ZM87.676 32.7478C88.636 32.7478 89.332 32.4358 89.764 31.8118C90.212 31.1718 90.436 30.3718 90.436 29.4118C90.436 28.4358 90.22 27.6358 89.788 27.0118C89.356 26.3878 88.652 26.0758 87.676 26.0758C86.716 26.0758 86.012 26.3958 85.564 27.0358C85.132 27.6598 84.916 28.4518 84.916 29.4118C84.916 30.3718 85.132 31.1718 85.564 31.8118C86.012 32.4358 86.716 32.7478 87.676 32.7478ZM101.307 35.6038C100.027 35.6038 98.9473 35.3158 98.0673 34.7398C97.1873 34.1638 96.5313 33.4118 96.0993 32.4838C95.6673 31.5398 95.4513 30.5318 95.4513 29.4598C95.4513 28.3718 95.6673 27.3558 96.0993 26.4118C96.5313 25.4678 97.1873 24.7078 98.0673 24.1318C98.9473 23.5398 100.019 23.2438 101.283 23.2438C102.515 23.2438 103.579 23.5398 104.475 24.1318C105.371 24.7238 106.035 25.6118 106.467 26.7958L103.395 28.0198C103.267 27.4278 103.011 26.9558 102.627 26.6038C102.259 26.2518 101.811 26.0758 101.283 26.0758C100.419 26.0758 99.7873 26.4038 99.3873 27.0598C98.9873 27.6998 98.7873 28.4998 98.7873 29.4598C98.7873 30.4038 98.9793 31.1878 99.3633 31.8118C99.7633 32.4358 100.395 32.7478 101.259 32.7478C101.787 32.7478 102.243 32.5798 102.627 32.2438C103.027 31.9078 103.291 31.4518 103.419 30.8758L106.347 32.0278C105.947 33.1478 105.299 34.0278 104.403 34.6678C103.523 35.2918 102.491 35.6038 101.307 35.6038ZM113.749 35.6038C112.549 35.6038 111.493 35.3238 110.581 34.7638C109.669 34.1878 108.965 33.4278 108.469 32.4838C107.989 31.5398 107.749 30.5158 107.749 29.4118C107.749 28.2918 107.989 27.2678 108.469 26.3398C108.949 25.3958 109.645 24.6438 110.557 24.0838C111.469 23.5238 112.533 23.2438 113.749 23.2438C114.965 23.2438 116.021 23.5238 116.917 24.0838C117.829 24.6438 118.525 25.3958 119.005 26.3398C119.501 27.2678 119.749 28.2918 119.749 29.4118C119.749 30.5158 119.501 31.5398 119.005 32.4838C118.525 33.4278 117.829 34.1878 116.917 34.7638C116.005 35.3238 114.949 35.6038 113.749 35.6038ZM113.749 32.7478C114.709 32.7478 115.405 32.4358 115.837 31.8118C116.285 31.1718 116.509 30.3718 116.509 29.4118C116.509 28.4358 116.293 27.6358 115.861 27.0118C115.429 26.3878 114.725 26.0758 113.749 26.0758C112.789 26.0758 112.085 26.3958 111.637 27.0358C111.205 27.6598 110.989 28.4518 110.989 29.4118C110.989 30.3718 111.205 31.1718 111.637 31.8118C112.085 32.4358 112.789 32.7478 113.749 32.7478ZM122.847 18.6118H127.791C130.575 18.6118 132.727 19.3558 134.247 20.8438C135.783 22.3158 136.551 24.4038 136.551 27.1078C136.551 29.7798 135.799 31.8198 134.295 33.2278C132.791 34.6358 130.615 35.3398 127.767 35.3398H122.847V18.6118ZM127.431 32.2198C128.743 32.2198 129.815 32.0598 130.647 31.7398C131.479 31.4038 132.103 30.8518 132.519 30.0838C132.935 29.3158 133.143 28.2758 133.143 26.9638C133.143 25.0918 132.695 23.7478 131.799 22.9318C130.919 22.1158 129.559 21.7078 127.719 21.7078H126.231V32.2198H127.431ZM144.175 23.2438C145.791 23.2438 147.063 23.6598 147.991 24.4918C148.935 25.3078 149.407 26.4278 149.407 27.8518V35.3398H146.431L146.191 33.9718C145.791 34.5318 145.295 34.9478 144.703 35.2198C144.111 35.4758 143.487 35.6038 142.831 35.6038C141.983 35.6038 141.223 35.4358 140.551 35.0998C139.879 34.7638 139.351 34.2918 138.967 33.6838C138.599 33.0758 138.415 32.3878 138.415 31.6198C138.415 30.9318 138.559 30.3398 138.847 29.8438C139.151 29.3318 139.575 28.9398 140.119 28.6678C140.855 28.2998 141.831 28.1158 143.047 28.1158H146.167V27.8518C146.167 27.3078 145.975 26.8758 145.591 26.5558C145.223 26.2358 144.703 26.0758 144.031 26.0758C142.927 26.0758 141.919 26.5878 141.007 27.6118L138.655 25.6438C139.359 24.8438 140.183 24.2438 141.127 23.8438C142.071 23.4438 143.087 23.2438 144.175 23.2438ZM143.359 32.9158C144.127 32.9158 144.783 32.6838 145.327 32.2198C145.871 31.7558 146.151 31.1878 146.167 30.5158H143.503C142.831 30.5158 142.359 30.6198 142.087 30.8278C141.799 31.0198 141.655 31.2998 141.655 31.6678C141.655 32.0358 141.799 32.3398 142.087 32.5798C142.391 32.8038 142.815 32.9158 143.359 32.9158ZM156.498 26.0518V31.5238C156.498 32.4518 156.994 32.9158 157.986 32.9158C158.418 32.9158 158.914 32.8278 159.474 32.6518V35.2198C158.754 35.4758 157.994 35.6038 157.194 35.6038C156.042 35.6038 155.098 35.2998 154.362 34.6918C153.626 34.0678 153.258 33.0998 153.258 31.7878V26.0518H151.338V23.5078H153.258V21.0118L156.498 18.6118V23.5078H159.474V26.0518H156.498ZM167.248 23.2438C168.864 23.2438 170.136 23.6598 171.064 24.4918C172.008 25.3078 172.48 26.4278 172.48 27.8518V35.3398H169.504L169.264 33.9718C168.864 34.5318 168.368 34.9478 167.776 35.2198C167.184 35.4758 166.56 35.6038 165.904 35.6038C165.056 35.6038 164.296 35.4358 163.624 35.0998C162.952 34.7638 162.424 34.2918 162.04 33.6838C161.672 33.0758 161.488 32.3878 161.488 31.6198C161.488 30.9318 161.632 30.3398 161.92 29.8438C162.224 29.3318 162.648 28.9398 163.192 28.6678C163.928 28.2998 164.904 28.1158 166.12 28.1158H169.24V27.8518C169.24 27.3078 169.048 26.8758 168.664 26.5558C168.296 26.2358 167.776 26.0758 167.104 26.0758C166 26.0758 164.992 26.5878 164.08 27.6118L161.728 25.6438C162.432 24.8438 163.256 24.2438 164.2 23.8438C165.144 23.4438 166.16 23.2438 167.248 23.2438ZM166.432 32.9158C167.2 32.9158 167.856 32.6838 168.4 32.2198C168.944 31.7558 169.224 31.1878 169.24 30.5158H166.576C165.904 30.5158 165.432 30.6198 165.16 30.8278C164.872 31.0198 164.728 31.2998 164.728 31.6678C164.728 32.0358 164.872 32.3398 165.16 32.5798C165.464 32.8038 165.888 32.9158 166.432 32.9158Z" fill="black"/>
<defs>
<filter id="filter0_d" x="0.388438" y="1.53016" width="48.2232" height="54.52" filterUnits="userSpaceOnUse" color-interpolation-filters="sRGB">
<feFlood flood-opacity="0" result="BackgroundImageFix"/>
<feColorMatrix in="SourceAlpha" type="matrix" values="0 0 0 0 0 0 0 0 0 0 0 0 0 0 0 0 0 0 127 0"/>
<feOffset dy="1.88"/>
<feGaussianBlur stdDeviation="1.88"/>
<feColorMatrix type="matrix" values="0 0 0 0 0 0 0 0 0 0 0 0 0 0 0 0 0 0 0.08 0"/>
<feBlend mode="normal" in2="BackgroundImageFix" result="effect1_dropShadow"/>
<feBlend mode="normal" in="SourceGraphic" in2="effect1_dropShadow" result="shape"/>
</filter>
<filter id="filter1_d" x="3.82008" y="17.0399" width="16.9202" height="20.2101" filterUnits="userSpaceOnUse" color-interpolation-filters="sRGB">
<feFlood flood-opacity="0" result="BackgroundImageFix"/>
<feColorMatrix in="SourceAlpha" type="matrix" values="0 0 0 0 0 0 0 0 0 0 0 0 0 0 0 0 0 0 127 0"/>
<feOffset dy="1.88"/>
<feGaussianBlur stdDeviation="1.88"/>
<feColorMatrix type="matrix" values="0 0 0 0 0 0 0 0 0 0 0 0 0 0 0 0 0 0 0.08 0"/>
<feBlend mode="normal" in2="BackgroundImageFix" result="effect1_dropShadow"/>
<feBlend mode="normal" in="SourceGraphic" in2="effect1_dropShadow" result="shape"/>
</filter>
<filter id="filter2_d" x="16.0388" y="12.3407" width="16.9209" height="24.9094" filterUnits="userSpaceOnUse" color-interpolation-filters="sRGB">
<feFlood flood-opacity="0" result="BackgroundImageFix"/>
<feColorMatrix in="SourceAlpha" type="matrix" values="0 0 0 0 0 0 0 0 0 0 0 0 0 0 0 0 0 0 127 0"/>
<feOffset dy="1.88"/>
<feGaussianBlur stdDeviation="1.88"/>
<feColorMatrix type="matrix" values="0 0 0 0 0 0 0 0 0 0 0 0 0 0 0 0 0 0 0.08 0"/>
<feBlend mode="normal" in2="BackgroundImageFix" result="effect1_dropShadow"/>
<feBlend mode="normal" in="SourceGraphic" in2="effect1_dropShadow" result="shape"/>
</filter>
<filter id="filter3_d" x="28.2595" y="0.12" width="16.9205" height="37.1301" filterUnits="userSpaceOnUse" color-interpolation-filters="sRGB">
<feFlood flood-opacity="0" result="BackgroundImageFix"/>
<feColorMatrix in="SourceAlpha" type="matrix" values="0 0 0 0 0 0 0 0 0 0 0 0 0 0 0 0 0 0 127 0"/>
<feOffset dy="1.88"/>
<feGaussianBlur stdDeviation="1.88"/>
<feColorMatrix type="matrix" values="0 0 0 0 0 0 0 0 0 0 0 0 0 0 0 0 0 0 0.08 0"/>
<feBlend mode="normal" in2="BackgroundImageFix" result="effect1_dropShadow"/>
<feBlend mode="normal" in="SourceGraphic" in2="effect1_dropShadow" result="shape"/>
</filter>
</defs>
</svg>
